<?xml version="1.0" encoding="UTF-8"?>
<svg width="90px" height="90px" viewBox="0 0 90 90" version="1.1" xmlns="http://www.w3.org/2000/svg" xmlns:xlink="http://www.w3.org/1999/xlink">
    <!-- Generator: Sketch 54.1 (76490) - https://sketchapp.com -->
    <title>ic_update</title>
    <desc>Created with Sketch.</desc>
    <g id="ic_update" stroke="none" stroke-width="1" fill="none" fill-rule="evenodd">
        <g id="ic_problem" fill="#000000" opacity="0">
            <rect id="Rectangle" x="0" y="0" width="90" height="90"></rect>
        </g>
        <path d="M20.3681558,31 C21.7982367,18.655458 32.5046455,9.06382979 45.5,9.06382979 C58.4953545,9.06382979 69.2017633,18.655458 70.6318442,31 L72,31 C78.627417,31 84,36.372583 84,43 L84,44 C84,50.627417 78.627417,56 72,56 L17,56 C10.372583,56 5,50.627417 5,44 L5,43 C5,36.372583 10.372583,31 17,31 L20.3681558,31 Z" id="形状结合" stroke="#979797" stroke-width="4" fill="#FFFFFF"></path>
        <rect id="矩形" fill="#979797" x="44" y="62" width="4" height="18"></rect>
        <polyline id="路径-17" stroke="#979797" stroke-width="4" points="37.5664062 72.3105469 46 80 54.2475586 71.7792969"></polyline>
        <path d="M48.1352539,18.4604492 C57.1508728,19.2137611 61.5948832,24.1310788 61.4672852,33.2124023" id="路径-18" stroke="#D8D8D8" stroke-width="4"></path>
    </g>
</svg>