<?xml version="1.0" encoding="UTF-8"?>
<svg width="90px" height="90px" viewBox="0 0 90 90" version="1.1" xmlns="http://www.w3.org/2000/svg" xmlns:xlink="http://www.w3.org/1999/xlink">
    <!-- Generator: Sketch 54.1 (76490) - https://sketchapp.com -->
    <title>ic_online</title>
    <desc>Created with Sketch.</desc>
    <g id="ic_online" stroke="none" stroke-width="1" fill="none" fill-rule="evenodd">
        <rect id="矩形" stroke="#979797" stroke-width="4" x="5" y="13" width="80" height="53"></rect>
        <rect id="矩形" stroke="#979797" stroke-width="4" x="30" y="76" width="30" height="8"></rect>
        <path d="M39.1044922,65.3242188 L35,76.3242188" id="路径-15" stroke="#979797" stroke-width="4"></path>
        <path d="M55.1044922,65.3242188 L51,76.3242188" id="路径-15" stroke="#979797" stroke-width="4" transform="translate(53.052246, 70.824219) scale(-1, 1) translate(-53.052246, -70.824219) "></path>
        <path d="M71,27 L71,6 L47,6 L47,27 L50,27 L50,31.7299168 L55.6759001,27 L71,27 Z" id="形状结合" stroke="#979797" stroke-width="4" fill="#F4F4F5"></path>
        <circle id="椭圆形" fill="#FFC915" cx="14.5" cy="22.5" r="1.5"></circle>
        <circle id="椭圆形" fill="#FFC915" cx="20.5" cy="22.5" r="1.5"></circle>
        <circle id="椭圆形" fill="#FFC915" cx="26.5" cy="22.5" r="1.5"></circle>
        <rect id="矩形" fill="#D8D8D8" x="15" y="38" width="58" height="4"></rect>
        <rect id="矩形" fill="#D8D8D8" x="52" y="15" width="9" height="4"></rect>
        <rect id="矩形" fill="#D8D8D8" x="63" y="15" width="3" height="4"></rect>
        <rect id="矩形" fill="#D8D8D8" x="15" y="46" width="42" height="4"></rect>
    </g>
</svg>