<?xml version="1.0" encoding="UTF-8"?>
<svg width="90px" height="90px" viewBox="0 0 90 90" version="1.1" xmlns="http://www.w3.org/2000/svg" xmlns:xlink="http://www.w3.org/1999/xlink">
    <!-- Generator: Sketch 54.1 (76490) - https://sketchapp.com -->
    <title>ic_service center</title>
    <desc>Created with Sketch.</desc>
    <g id="ic_service-center" stroke="none" stroke-width="1" fill="none" fill-rule="evenodd">
        <g id="ic_service" fill="#000000" opacity="0">
            <rect id="Rectangle" x="0" y="0" width="90" height="90"></rect>
        </g>
        <ellipse id="椭圆形" fill="#D8D8D8" cx="46" cy="68.5" rx="18" ry="4.5"></ellipse>
        <path d="M46.0742188,65.8886719 C57.7040128,56.6901747 67,41.8458399 67,30.1596744 C67,18.4735089 57.5979797,9 46,9 C34.4020203,9 25,18.4735089 25,30.1596744 C25,41.8458399 34.6413143,56.3622805 46.0742188,65.8886719 Z" id="椭圆形" stroke="#979797" stroke-width="4"></path>
        <path d="M27.0543137,59.7446604 C15.6900194,61.679724 8,65.3957126 8,69.6620807 C8,75.9238406 24.5654643,81 45,81 C65.4345357,81 82,75.9238406 82,69.6620807 C82,65.7310507 75.4713482,62.2672804 65.5553501,60.2333607" id="路径" stroke="#979797" stroke-width="4"></path>
        <circle id="椭圆形" stroke="#FBBD0F" stroke-width="4" cx="46" cy="29" r="7"></circle>
    </g>
</svg>