<?xml version="1.0" encoding="UTF-8"?>
<svg width="90px" height="90px" viewBox="0 0 90 90" version="1.1" xmlns="http://www.w3.org/2000/svg" xmlns:xlink="http://www.w3.org/1999/xlink">
    <!-- Generator: Sketch 54.1 (76490) - https://sketchapp.com -->
    <title>ic_problem</title>
    <desc>Created with Sketch.</desc>
    <g id="ic_problem" stroke="none" stroke-width="1" fill="none" fill-rule="evenodd">
        <g fill="#000000" id="Rectangle" opacity="0">
            <rect x="0" y="0" width="90" height="90"></rect>
        </g>
        <circle id="椭圆形" stroke="#9B9B9B" stroke-width="4" cx="45" cy="44" r="37"></circle>
        <path d="M45.958,24.688 C49.414,24.688 52.222,25.606 54.274,27.55 C56.272,29.386 57.298,31.924 57.298,35.164 C57.298,37.594 56.596,39.7 55.3,41.482 C54.76,42.13 53.248,43.534 50.872,45.64 C49.738,46.612 48.928,47.584 48.388,48.556 C47.686,49.744 47.362,51.094 47.362,52.552 L47.362,53.794 L42.988,53.794 L42.988,52.552 C42.988,50.77 43.312,49.204 44.014,47.854 C44.716,46.234 46.552,44.182 49.468,41.59 C50.332,40.726 50.926,40.078 51.304,39.646 C52.33,38.296 52.87,36.892 52.87,35.38 C52.87,33.22 52.276,31.546 51.088,30.358 C49.792,29.062 48.01,28.468 45.742,28.468 C43.096,28.468 41.098,29.332 39.748,31.114 C38.614,32.626 38.02,34.678 38.02,37.324 L33.7,37.324 C33.7,33.544 34.78,30.52 36.886,28.252 C39.1,25.876 42.124,24.688 45.958,24.688 Z" id="?" fill="#9B9B9B" fill-rule="nonzero"></path>
        <path d="M45.202,57.574 C46.12,57.574 46.876,57.844 47.524,58.492 C48.118,59.086 48.442,59.842 48.442,60.76 C48.442,61.732 48.118,62.488 47.524,63.082 C46.876,63.676 46.066,64 45.202,64 C44.23,64 43.474,63.676 42.88,63.082 C42.232,62.434 41.908,61.678 41.908,60.76 C41.908,59.842 42.232,59.086 42.88,58.492 C43.474,57.844 44.23,57.574 45.202,57.574 Z" id="路径" fill="#FFC915" fill-rule="nonzero"></path>
    </g>
</svg>