<?xml version="1.0" encoding="utf-8"?>
<!-- Generator: Adobe Illustrator 23.0.1, SVG Export Plug-In . SVG Version: 6.00 Build 0)  -->
<svg version="1.1" id="图层_1" xmlns="http://www.w3.org/2000/svg" xmlns:xlink="http://www.w3.org/1999/xlink" x="0px" y="0px"
	 viewBox="0 0 379.1 54.8" style="enable-background:new 0 0 379.1 54.8;" xml:space="preserve">
<g>
	<g>
		<polygon points="269.6,12.4 269.6,18.8 288.9,18.8 274.2,54.2 281.2,54.2 296.1,18.1 298.5,12.4 		"/>
		<g>
			<path d="M144.9,27.4c0-5.6,5.2-9.4,10-9.4c5.9,0,9.5,4.1,9.5,10.8v25.3h6.7V28.1c0-4.8,2.7-10,10.2-10c5.8,0,9.6,4.2,9.6,10.8
				v25.3h6.7V28.9c0-10.5-5.9-17.1-15.5-17.1c-5.6,0-10.5,2.4-13.5,6.7c-2-3.2-5.7-6.7-12.5-6.7c-4.6,0-8.5,1.6-11.2,4.6v-4.1h-6.7
				v41.8h6.7V27.4z"/>
			<path d="M68.8,32.7c0-6.3-2-11.7-5.7-15.5c-3.5-3.6-8.4-5.6-13.8-5.6c-12.2,0-21,9.1-21,21.6c0,12.7,8.6,21.5,20.9,21.5
				c8.1,0,14.5-3.5,18.4-10.2l0.3-0.6l-5.7-3.7L61.8,41c-3,5.1-7,7.5-12.6,7.5c-7.8,0-13.8-5.8-14.2-13.7h33.9V32.7z M35.2,28.8
				c1.6-6.5,7.2-10.9,13.9-10.9c6.6,0,11.7,4.4,12.9,10.9H35.2z"/>
			<polygon points="6.7,18.6 25.7,18.6 25.7,12.4 0,12.4 0,54.3 6.7,54.3 			"/>
			<path d="M224.1,54.8c8.1,0,14.5-3.5,18.4-10.2l0.3-0.6l-5.7-3.7l-0.4,0.6c-3,5.1-7,7.5-12.6,7.5c-7.8,0-13.8-5.8-14.2-13.7h33.9
				v-2.2c0-6.3-2-11.7-5.7-15.5c-3.5-3.6-8.4-5.6-13.8-5.6c-12.2,0-21,9.1-21,21.6C203.2,45.9,211.8,54.8,224.1,54.8z M210.2,28.8
				c1.6-6.5,7.2-10.9,13.9-10.9c6.6,0,11.7,4.4,12.9,10.9H210.2z"/>
			<rect x="123" width="6.7" height="54.2"/>
			<path d="M94.8,54.9c4.9,0,9.5-1.6,12.9-4.5v3.8h6.6V12.4h-6.6v3.8c-3.5-2.9-8.1-4.5-12.9-4.5c-5.9,0-11.4,2.2-15.3,6.2
				c-3.8,4-6,9.4-6,15.4c0,5.9,2.1,11.4,6,15.3C83.4,52.7,88.9,54.9,94.8,54.9z M80.3,33.4c0-8.5,6.1-15,14.2-15
				c8.4,0,14.1,6,14.1,15c0,8.9-5.7,14.9-14.1,14.9C86.4,48.3,80.3,41.9,80.3,33.4z"/>
		</g>
	</g>
	<g>
		<g>
			<g>
				<g>
					<g>
						<path d="M327.2,21.8l-1,11.6h6.6c1.7,0,3.6,0.7,4.5,2.3c1,1.9,0.3,4.2-1.5,5.3c-1.9,1.2-4.3,1.2-6.4,1c-0.1,0-2.4-0.3-2.7-0.5
							l-0.7,2.8c2.8,0.9,5.8,0.9,5.8,0.9c3.1-0.1,6.3-1.3,8-4c1.7-2.7,1.1-6.5-1.2-8.6c-1.5-1.4-3.7-2.1-5.7-2.1l-3.6-0.1l0.4-5.7"
							/>
					</g>
				</g>
			</g>
			<g>
				<g>
					<g>
						<polyline points="329.7,24.6 339.2,24.6 339.9,21.8 327.1,21.8 						"/>
					</g>
				</g>
			</g>
			<g>
				<g>
					<g>
						<path d="M365.5,34.8c0,5.8-4.3,10.4-11.3,10.4c-7.1,0-12.1-5.4-12.1-11.9c0-6.6,5.1-11.9,12.1-11.9c4,0,7.4,1.9,9.5,4.8
							c0,0-2.2,2.3-2.2,2.2c-1.3-2.4-4.1-4-7.3-4c-5.3,0-9,3.9-9,9c0,5,3.6,8.9,9.1,8.9c4.8,0,7.6-2.6,8.2-6.1h-7l-1.4-2.8h11.5
							V34.8z"/>
					</g>
				</g>
			</g>
		</g>
		<g>
			<g>
				<g>
					<path d="M371.1,12.4h-51.9c-4.4,0-7.9,3.6-7.9,7.9v26c0,4.4,3.6,7.9,7.9,7.9h51.9c4.4,0,7.9-3.6,7.9-7.9v-26
						C379.1,15.9,375.5,12.4,371.1,12.4z M314.1,20.3c0-2.8,2.3-5.1,5.1-5.1h51.9c2.8,0,5.1,2.3,5.1,5.1v26c0,2.8-2.3,5.1-5.1,5.1
						h-51.9c-2.8,0-5.1-2.3-5.1-5.1V20.3z"/>
				</g>
			</g>
		</g>
	</g>
</g>
</svg>
