<?xml version="1.0" encoding="utf-8"?>
<!-- Generator: Adobe Illustrator 23.0.0, SVG Export Plug-In . SVG Version: 6.00 Build 0)  -->
<svg version="1.1" id="图层_1" xmlns="http://www.w3.org/2000/svg" xmlns:xlink="http://www.w3.org/1999/xlink" x="0px" y="0px"
	 viewBox="0 0 313.8 45.3" style="enable-background:new 0 0 313.8 45.3;" xml:space="preserve">
<style type="text/css">
	.st0{fill:#FFFFFF;}
</style>
<path class="st0" d="M233.7,45.3c7.4,0,11.9-3.9,11.9-10.1c0-3.7-1.6-6.6-4.7-8.2l-0.3-0.2l0.3-0.2c2.3-1.5,3.5-3.9,3.5-7.2
	c0-6.7-5.4-9.8-10.8-9.8c-5.4,0-10.8,3-10.8,9.8c0,3.3,1.2,5.7,3.4,7.2l0.3,0.2l-0.3,0.2c-3,1.7-4.6,4.5-4.6,8.2
	C221.7,41.4,226.4,45.3,233.7,45.3 M233.7,14.8c3.3,0,5.5,2,5.5,5c0,2.9-2.1,4.6-5.5,4.6c-3.4,0-5.5-1.7-5.5-4.6
	C228.2,16.7,230.3,14.8,233.7,14.8 M233.7,29.1c4.1,0,6.6,2.1,6.6,5.6c0,3.5-2.5,5.6-6.6,5.6c-4.1,0-6.7-2.1-6.7-5.6
	C227,31.3,229.6,29.1,233.7,29.1"/>
<path class="st0" d="M119.6,22.5c0-4.6,4.2-7.7,8.2-7.7c4.8,0,7.8,3.4,7.8,8.9v20.8h5.5V23.1c0-4,2.2-8.2,8.3-8.2
	c4.8,0,7.9,3.5,7.9,8.9v20.8h5.5V23.7c0-8.6-4.9-14-12.7-14c-4.6,0-8.6,2-11.1,5.5c-1.6-2.7-4.7-5.5-10.2-5.5c-3.7,0-7,1.3-9.2,3.8
	v-3.3h-5.5v34.3h5.5V22.5z M57.2,26.8c0-5.2-1.7-9.6-4.7-12.7c-2.9-2.9-6.9-4.5-11.3-4.5C31.2,9.6,24,17,24,27.3
	C24,37.7,31,45,41.1,45c6.7,0,11.9-2.9,15-8.3l0.3-0.5l-4.7-3l-0.3,0.5c-2.5,4.2-5.8,6.2-10.3,6.2c-6.4,0-11.3-4.8-11.6-11.2h27.8
	V26.8z M29.7,23.7c1.3-5.3,5.9-9,11.4-9c5.4,0,9.6,3.6,10.6,9H29.7z M6.3,15.3h15.6v-5.1H0.8v34.4h5.5V15.3z M184.5,45
	c6.7,0,11.9-2.9,15.1-8.3l0.3-0.5l-4.7-3l-0.3,0.5c-2.5,4.2-5.8,6.2-10.3,6.2c-6.4,0-11.3-4.8-11.6-11.2h27.8v-1.8
	c0-5.2-1.7-9.6-4.7-12.7c-2.9-2.9-6.9-4.5-11.3-4.5c-10,0-17.3,7.5-17.3,17.7C167.4,37.7,174.5,45,184.5,45 M173.1,23.7
	c1.3-5.3,5.9-9,11.4-9c5.4,0,9.6,3.6,10.6,9H173.1z M107.1,0.1h-5.5v44.4h5.5V0.1z M78.6,45.1c4,0,7.8-1.3,10.6-3.7v3.1h5.4V10.3
	h-5.4v3.2c-2.9-2.4-6.7-3.7-10.6-3.7c-4.9,0-9.3,1.8-12.5,5.1c-3.1,3.3-4.9,7.7-4.9,12.6c0,4.9,1.7,9.3,4.9,12.6
	C69.2,43.3,73.7,45.1,78.6,45.1 M66.6,27.4c0-7,5-12.3,11.7-12.3c6.9,0,11.5,4.9,11.5,12.3c0,7.3-4.6,12.2-11.5,12.2
	C71.6,39.6,66.6,34.4,66.6,27.4"/>
<path class="st0" d="M274.2,25.3l-3,0l0.4-4.7h7.8l0.5-2.3h-10.5l0,0l-0.8,9.5h5.4c1.4,0,3,0.5,3.7,1.9c0.8,1.6,0.2,3.4-1.3,4.4
	c-1.5,1-3.5,1-5.2,0.8c-0.1,0-1.9-0.2-2.3-0.4l-0.5,2.3c2.3,0.8,4.8,0.7,4.8,0.7c2.5,0,5.2-1.1,6.6-3.3c1.4-2.2,0.9-5.3-1-7.1
	C277.6,25.9,275.9,25.3,274.2,25.3"/>
<path class="st0" d="M292.6,30.1h5.8c-0.5,2.8-2.8,5-6.7,5c-4.5,0-7.5-3.2-7.5-7.3c0-4.1,3-7.4,7.4-7.4c2.6,0,4.9,1.3,6,3.3
	c0,0,1.8-1.8,1.8-1.8c-1.7-2.4-4.5-3.9-7.8-3.9c-5.8,0-9.9,4.4-9.9,9.8c0,5.4,4.1,9.8,10,9.8c5.7,0,9.3-3.8,9.3-8.6v-1.1h-9.5
	L292.6,30.1z"/>
<path class="st0" d="M305.1,10.5h-42.7c-3.6,0-6.5,2.9-6.5,6.5v21.4c0,3.6,2.9,6.5,6.5,6.5h42.7c3.6,0,6.5-2.9,6.5-6.5V17
	C311.6,13.4,308.7,10.5,305.1,10.5 M309.3,38.4c0,2.3-1.9,4.2-4.2,4.2h-42.7c-2.3,0-4.2-1.9-4.2-4.2V17c0-2.3,1.9-4.2,4.2-4.2h42.7
	c2.3,0,4.2,1.9,4.2,4.2V38.4z"/>
</svg>
