<?xml version="1.0" encoding="utf-8"?>
<!-- Generator: Adobe Illustrator 25.1.0, SVG Export Plug-In . SVG Version: 6.00 Build 0)  -->
<svg version="1.1" id="图层_1" xmlns="http://www.w3.org/2000/svg" xmlns:xlink="http://www.w3.org/1999/xlink" x="0px" y="0px"
	 viewBox="0 0 307.9 57" style="enable-background:new 0 0 307.9 57;" xml:space="preserve">
<style type="text/css">
	.st0{fill:#FFFFFF;}
</style>
<g>
	<path class="st0" d="M149.5,28.3c0-5.8,5.3-9.7,10.3-9.7c6.1,0,9.8,4.3,9.8,11.2v26.2h6.9v-27c0-5,2.8-10.3,10.5-10.3
		c6,0,9.9,4.4,9.9,11.2v26.2h6.9V29.8c0-10.9-6.1-17.6-15.9-17.6c-5.8,0-10.8,2.5-13.9,6.9c-2.1-3.3-5.9-6.9-12.9-6.9
		c-4.7,0-8.8,1.7-11.6,4.8v-4.2h-6.9v43.2h6.9V28.3z M71,33.7c0-6.5-2.1-12.1-5.9-16C61.5,14,56.4,12,50.9,12
		c-12.6,0-21.7,9.4-21.7,22.3c0,13.1,8.9,22.2,21.6,22.2c8.4,0,15-3.6,18.9-10.5l0.3-0.6l-5.9-3.8l-0.4,0.6c-3.1,5.3-7.2,7.8-13,7.8
		c-8.1,0-14.2-6-14.7-14.1h35V33.7z M36.4,29.7c1.6-6.7,7.4-11.3,14.3-11.3c6.8,0,12.1,4.5,13.3,11.3H36.4z M6.9,19.2h19.7v-6.4H0
		V56h6.9V19.2z M231.2,56.5c8.4,0,15-3.6,18.9-10.5l0.3-0.6l-5.9-3.8l-0.4,0.6c-3.1,5.3-7.2,7.8-13,7.8c-8.1,0-14.2-6-14.7-14.1h35
		v-2.2c0-6.5-2.1-12.1-5.9-16C242,14,237,12,231.4,12c-12.6,0-21.7,9.4-21.7,22.3C209.7,47.4,218.6,56.5,231.2,56.5z M216.9,29.7
		c1.6-6.7,7.4-11.3,14.3-11.3c6.8,0,12.1,4.5,13.3,11.3H216.9z M133.8,0h-6.9v55.9h6.9V0z M97.8,56.7c5,0,9.8-1.7,13.3-4.6v4h6.8
		V12.8h-6.8v4c-3.6-3-8.4-4.6-13.3-4.6c-6.1,0-11.7,2.3-15.7,6.4c-4,4.1-6.1,9.7-6.1,15.9c0,6.1,2.2,11.8,6.1,15.8
		C86.1,54.4,91.7,56.7,97.8,56.7z M82.8,34.5c0-8.8,6.3-15.4,14.7-15.4c8.7,0,14.5,6.2,14.5,15.4c0,9.2-5.8,15.4-14.5,15.4
		C89.1,49.8,82.8,43.2,82.8,34.5z"/>
	<path class="st0" d="M292.9,57c9.3,0,15-4.8,15-12.7c0-4.7-2-8.3-5.9-10.4l-0.4-0.2l0.4-0.2c2.9-1.9,4.4-4.9,4.4-9
		c0-8.5-6.8-12.3-13.6-12.3c-6.8,0-13.6,3.8-13.6,12.3c0,4.1,1.5,7.1,4.3,9l0.3,0.2l-0.4,0.2c-3.8,2.1-5.8,5.7-5.8,10.4
		C277.8,52,283.7,57,292.9,57z M292.9,18.5c4.2,0,6.9,2.5,6.9,6.3c0,3.6-2.6,5.8-6.9,5.8s-6.9-2.2-6.9-5.8
		C285.9,21,288.7,18.5,292.9,18.5z M292.9,36.6c5.2,0,8.4,2.7,8.4,7.1c0,4.4-3.2,7.1-8.4,7.1c-5.2,0-8.4-2.7-8.4-7.1
		C284.5,39.3,287.7,36.6,292.9,36.6z"/>
</g>
</svg>
