<?xml version="1.0" encoding="UTF-8"?>
<svg width="375px" height="26px" viewBox="0 0 375 26" version="1.1" xmlns="http://www.w3.org/2000/svg" xmlns:xlink="http://www.w3.org/1999/xlink">
    <!-- Generator: Sketch 63.1 (92452) - https://sketch.com -->
    <title>形状结合备份 3</title>
    <desc>Created with Sketch.</desc>
    <g id="页面-1" stroke="none" stroke-width="1" fill="none" fill-rule="evenodd">
        <path d="M294.897697,7.69003442 L294.897697,18.4876165 C294.897697,21.4462262 296.619623,23.2135001 299.503849,23.2135001 C302.914782,23.2135001 304.872206,21.003778 304.872206,17.1518764 L304.872206,17.1518764 L304.872206,7.69003442 L307.81805,7.69003442 L307.81805,25.5298464 L304.872206,25.5298464 L304.872206,22.6711443 L304.677223,22.9801024 C303.395908,25.0118378 301.501789,26 298.886826,26 C294.608177,26 291.950165,23.1899924 291.950165,18.6681219 L291.950165,18.6681219 L291.950165,7.69003442 L294.897697,7.69003442 Z M354.963029,7.22038452 C360.054528,7.22038452 363.894253,11.2721014 363.894253,16.6461254 C363.894253,17.0776593 363.863022,17.5167492 363.80056,17.9499622 L363.80056,17.9499622 L348.556452,17.9499622 L348.579242,18.0733776 C349.185293,21.2662245 351.742859,23.2492654 355.253393,23.2492654 C357.512155,23.2492654 359.470423,22.2804131 360.515396,20.6499874 L360.515396,20.6499874 L363.014721,22.0612879 C361.317273,24.6017967 358.540246,25.9996642 355.180802,25.9996642 C349.515329,25.9996642 345.558275,22.1385274 345.558275,16.6100243 C345.558275,11.1696751 349.51364,7.22038452 354.963029,7.22038452 Z M146.236664,8.96171606 C149.445017,8.96171606 152.167179,10.6215263 153.407978,13.1527999 L153.407978,13.1527999 L151.036954,14.4969356 C150.221571,12.8001847 148.407641,11.6785324 146.236664,11.6785324 C142.991171,11.6785324 140.524765,14.1443204 140.524765,17.374108 C140.524765,20.5778692 142.991171,23.0377802 146.236664,23.0377802 C148.438872,23.0377802 150.221571,21.9194862 151.130647,20.2563177 L151.130647,20.2563177 L153.533746,21.6348753 C152.167179,24.1325665 149.413786,25.7948955 146.236664,25.7948955 C141.333395,25.7948955 137.699625,22.1142641 137.699625,17.374108 C137.699625,12.6423474 141.333395,8.96171606 146.236664,8.96171606 Z M37.1258188,8.96171606 C39.8893409,8.96171606 41.9632487,10.1765595 43.2563813,12.1293762 L43.2563813,12.1293762 L43.2563813,9.37897742 L46.0764569,9.37897742 L46.0764569,25.3776341 L43.2563813,25.3776341 L43.2563813,22.6272353 C41.9632487,24.5741751 39.8893409,25.7948955 37.1258188,25.7948955 C32.6167364,25.7948955 28.9171281,22.1142641 28.9171281,17.374108 C28.9171281,12.6423474 32.6167364,8.96171606 37.1258188,8.96171606 Z M208.907759,8.96238771 C213.801742,8.96238771 216.981396,12.9326673 216.981396,17.4075225 C216.981396,17.8247838 216.947633,18.2386869 216.885171,18.6559483 L216.885171,18.6559483 L203.293774,18.6559483 C203.844959,21.5423558 206.144237,23.1702628 209.161827,23.1702628 C211.404551,23.1702628 213.024343,22.1485182 213.832973,20.8312484 L213.832973,20.8312484 L216.239449,22.1787423 C214.810419,24.354882 212.341482,25.793888 209.099365,25.793888 C203.87619,25.793888 200.401952,22.1787423 200.401952,17.3731005 C200.401952,12.6421795 203.844959,8.96238771 208.907759,8.96238771 Z M128.196198,8.96238771 C133.090182,8.96238771 136.269836,12.9326673 136.269836,17.4075225 C136.269836,17.8247838 136.235229,18.2386869 136.176143,18.6559483 L136.176143,18.6559483 L122.582214,18.6559483 C123.133399,21.5423558 125.432676,23.1702628 128.453643,23.1702628 C130.696367,23.1702628 132.316159,22.1485182 133.124789,20.8312484 L133.124789,20.8312484 L135.527044,22.1787423 C134.098859,24.354882 131.633297,25.793888 128.390337,25.793888 C123.168006,25.793888 119.693767,22.1787423 119.693767,17.3731005 C119.693767,12.6421795 123.133399,8.96238771 128.196198,8.96238771 Z M19.4135323,8.96238771 C24.3075157,8.96238771 27.488014,12.9326673 27.488014,17.4075225 C27.488014,17.8247838 27.4534067,18.2386869 27.3901006,18.6559483 L27.3901006,18.6559483 L13.7995476,18.6559483 C14.3507327,21.5423558 16.6500101,23.1702628 19.6709771,23.1702628 C21.9137011,23.1702628 23.5301168,22.1485182 24.3387467,20.8312484 L24.3387467,20.8312484 L26.7452225,22.1787423 C25.3161929,24.354882 22.847255,25.793888 19.607671,25.793888 C14.38534,25.793888 10.907725,22.1787423 10.907725,17.3731005 C10.907725,12.6421795 14.3507327,8.96238771 19.4135323,8.96238771 Z M90.0034607,8.96238771 C94.9008204,8.96238771 98.0770984,12.9326673 98.0770984,17.4075225 C98.0770984,17.8247838 98.0458674,18.2386869 97.9834054,18.6559483 L97.9834054,18.6559483 L84.3928523,18.6559483 C84.9440374,21.5423558 87.2433149,23.1702628 90.2609055,23.1702628 C92.5036295,23.1702628 94.1234216,22.1485182 94.9320515,20.8312484 L94.9320515,20.8312484 L97.3351509,22.1787423 C95.9069654,24.354882 93.4405598,25.793888 90.1984435,25.793888 C84.9752684,25.793888 81.5010298,22.1787423 81.5010298,17.3731005 C81.5010298,12.6421795 84.9440374,8.96238771 90.0034607,8.96238771 Z M263.298501,7.58399799 L263.298501,10.6551087 C261.647478,10.6139703 260.186373,11.1118294 259.190357,12.0647301 C258.15889,13.0503736 257.636404,14.4709092 257.636404,16.2868777 L257.636404,16.2868777 L257.636404,25.7495592 L254.689716,25.7495592 L254.689716,7.90890773 L257.636404,7.90890773 L257.636404,11.3183612 L257.837295,10.8792713 C259.066277,8.20695156 261.462624,7.60582655 263.298501,7.58399799 L263.298501,7.58399799 Z M250.995003,7.90832004 L250.995003,25.7489715 L248.048315,25.7489715 L248.048315,7.90832004 L250.995003,7.90832004 Z M237.450621,2.44009739 L246.183486,25.7345311 L243.067982,25.7345311 L241.167955,20.5317773 L241.142633,20.4620939 L230.361182,20.4620939 L228.437521,25.7345311 L225.320329,25.7345311 L234.053194,2.44009739 L237.450621,2.44009739 Z M281.37619,2.33943414 C285.665811,2.33943414 288.900331,5.54235581 288.900331,9.78885064 C288.900331,14.036185 285.665811,17.2391067 281.37619,17.2391067 L281.37619,17.2391067 L275.836485,17.2391067 L275.836485,25.6338679 L272.907522,25.6338679 L272.907522,2.33943414 Z M337.90288,1.77635684e-15 C338.924218,1.77635684e-15 340.014771,0.135169171 341.53665,0.450004198 L341.53665,0.450004198 L341.53665,3.0971371 C340.063728,2.90823608 338.939412,2.82344052 337.90288,2.82344052 C334.425265,2.82344052 333.007208,4.04583998 333.007208,7.04306943 L333.007208,7.04306943 L333.007208,7.68953069 L342.878739,7.68953069 L342.878739,25.5301822 L339.932896,25.5301822 L339.932896,10.5121316 L333.007208,10.5121316 L333.007208,25.5301822 L330.060521,25.5301822 L330.060521,10.5121316 L327.156037,10.5121316 L327.156037,7.68953069 L330.060521,7.68953069 L330.060521,7.04306943 C330.060521,2.37007808 332.699119,1.77635684e-15 337.90288,1.77635684e-15 Z M320.08694,7.3654605 L320.08694,10.4365712 C318.421568,10.3945932 316.974813,10.8932919 315.978797,11.8461926 C314.947329,12.8318361 314.424843,14.2515322 314.424843,16.0683402 L314.424843,16.0683402 L314.424843,25.5301822 L311.478155,25.5301822 L311.478155,7.69037025 L314.424843,7.69037025 L314.424843,11.0998237 L314.625734,10.6607338 C315.854717,7.98841407 318.251064,7.38728906 320.08694,7.3654605 L320.08694,7.3654605 Z M375,7.3654605 L375,10.4365712 C373.34138,10.3971119 371.88956,10.8924524 370.8927,11.8461926 C369.861233,12.8309966 369.338747,14.2515322 369.338747,16.0683402 L369.338747,16.0683402 L369.338747,25.5301822 L366.392059,25.5301822 L366.392059,7.69037025 L369.338747,7.69037025 L369.338747,11.0998237 L369.539638,10.6607338 C370.76862,7.98841407 373.164967,7.38728906 375,7.3654605 L375,7.3654605 Z M324.986326,7.68919486 L324.986326,25.5298464 L322.038794,25.5298464 L322.038794,7.68919486 L324.986326,7.68919486 Z M52.312614,2.01796659 L52.312614,25.3795651 L49.4866298,25.3795651 L49.4866298,2.01796659 L52.312614,2.01796659 Z M10.4826457,9.37973302 L10.4826457,12.0654857 L2.82936052,12.0654857 L2.82936052,25.3775502 L-5.95079541e-14,25.3775502 L-5.95079541e-14,9.37973302 L10.4826457,9.37973302 Z M73.2689581,8.96238771 C76.8689648,8.96238771 79.3691336,11.425657 79.3691336,15.4278398 L79.3691336,15.4278398 L79.3691336,25.3774662 L76.5431494,25.3774662 L76.5431494,15.5227101 C76.5431494,12.9956343 75.1141198,11.6170767 72.9709974,11.6170767 C70.7029509,11.6170767 68.9860895,13.0258585 68.9860895,16.4840064 L68.9860895,16.4840064 L68.9860895,25.3774662 L66.1601053,25.3774662 L66.1601053,15.5227101 C66.1601053,12.9956343 64.8315214,11.6170767 62.7263826,11.6170767 C60.5461206,11.6170767 58.5718144,13.0258585 58.5718144,16.4840064 L58.5718144,16.4840064 L58.5718144,25.3774662 L55.7458302,25.3774662 L55.7458302,9.37964906 L58.5718144,9.37964906 L58.5718144,11.5213668 C59.7374907,9.72554781 61.4231211,8.96238771 63.4033358,8.96238771 C65.6089203,8.96238771 67.2320886,9.95474771 68.1715511,11.6783645 C69.3059964,9.8581983 71.160443,8.96238771 73.2689581,8.96238771 Z M122.515025,2.97607254 L122.515025,5.79447569 L115.797826,5.79447569 L115.797826,25.3772143 L112.81231,25.3772143 L112.81231,5.79447569 L106.128874,5.79447569 L106.128874,2.97607254 L122.515025,2.97607254 Z M158.266848,2.97716397 L158.266848,11.6783645 C159.467131,9.79691042 161.249831,8.96238771 163.52463,8.96238771 C167.318776,8.96238771 169.815568,11.4592394 169.815568,15.5537738 L169.815568,15.5537738 L169.815568,25.3774662 L166.99296,25.3774662 L166.99296,15.7116111 C166.99296,13.0879859 165.464329,11.6170767 162.973445,11.6170767 C160.376207,11.6170767 158.266848,13.1224079 158.266848,16.8953908 L158.266848,16.8953908 L158.266848,25.3774662 L155.44424,25.3774662 L155.44424,2.97716397 L158.266848,2.97716397 Z M189.155075,9.37838972 L189.155075,25.3770464 L186.332467,25.3770464 L186.332467,9.37838972 L189.155075,9.37838972 Z M193.828415,8.89950466 C193.828415,4.6387373 196.291444,2.24347242 200.927983,2.55830745 L200.927983,2.55830745 L200.927983,5.25077659 C198.107907,5.02409537 196.648491,6.11216523 196.648491,8.89950466 L196.648491,8.89950466 L196.648491,9.37889346 L200.927983,9.37889346 L200.927983,12.0638066 L196.648491,12.0638066 L196.648491,25.3767106 L193.828415,25.3767106 L193.828415,12.0638066 L191.227801,12.0638066 L191.227801,9.37889346 L193.828415,9.37889346 Z M175.933216,2.97565276 L175.933216,22.5651079 L184.477007,22.5651079 L184.477007,25.3767946 L172.922378,25.3767946 L172.922378,2.97565276 L175.933216,2.97565276 Z M37.4828651,11.6474687 C34.2399048,11.6474687 31.739736,14.1132567 31.739736,17.374108 C31.739736,20.6425153 34.2399048,23.1057846 37.4828651,23.1057846 C40.7562124,23.1057846 43.2563813,20.6425153 43.2563813,17.374108 C43.2563813,14.1132567 40.7562124,11.6474687 37.4828651,11.6474687 Z M235.735448,5.75468055 L231.417128,17.6109479 L231.364795,17.7511544 L240.139864,17.7511544 L235.834206,6.02585845 L235.735448,5.75468055 Z M128.196198,11.5860129 C125.144844,11.5860129 123.039706,13.4456385 122.582214,16.2237428 L122.582214,16.2237428 L133.419373,16.2237428 C132.933183,13.0594409 130.62462,11.5860129 128.196198,11.5860129 Z M90.0034607,11.5860129 C86.9521068,11.5860129 84.8469681,13.4456385 84.3928523,16.2237428 L84.3928523,16.2237428 L95.2266358,16.2237428 C94.7412891,13.0594409 92.4318826,11.5860129 90.0034607,11.5860129 Z M19.4135323,11.5860129 C16.3621784,11.5860129 14.2570396,13.4456385 13.7995476,16.2237428 L13.7995476,16.2237428 L24.6367074,16.2237428 C24.1505166,13.0594409 21.8419542,11.5860129 19.4135323,11.5860129 Z M208.907759,11.5860129 C205.856405,11.5860129 203.74789,13.4456385 203.293774,16.2237428 L203.293774,16.2237428 L214.130934,16.2237428 C213.642211,13.0594409 211.332804,11.5860129 208.907759,11.5860129 Z M354.963029,9.97078331 C351.556317,9.97078331 349.110169,12.0100747 348.579242,15.2935942 L348.579242,15.2935942 L348.559828,15.4153304 L360.928152,15.4153304 L360.910426,15.2944337 C360.312817,11.3694904 357.445472,9.97078331 354.963029,9.97078331 Z M281.37619,5.0503736 L275.836485,5.0503736 L275.836485,14.5281672 L281.37619,14.5281672 C284.015632,14.5281672 286.005132,12.4905549 286.005132,9.78885064 C286.005132,7.04348921 284.058681,5.0503736 281.37619,5.0503736 L281.37619,5.0503736 Z M187.760652,2.72185375 C188.798028,2.72185375 189.634513,3.5807237 189.634513,4.60414743 C189.634513,5.63008983 188.798028,6.46461254 187.760652,6.46461254 C186.689513,6.46461254 185.843744,5.63008983 185.843744,4.60414743 C185.843744,3.5807237 186.689513,2.72185375 187.760652,2.72185375 Z M249.539385,0.399378726 C250.642599,0.399378726 251.539013,1.30778272 251.539013,2.42439762 C251.539013,3.52086307 250.642599,4.41331542 249.539385,4.41331542 C248.416757,4.41331542 247.503461,3.52086307 247.503461,2.42439762 C247.503461,1.30778272 248.416757,0.399378726 249.539385,0.399378726 Z M323.530792,0.180841239 C324.634006,0.180841239 325.530421,1.08924524 325.530421,2.20586013 C325.530421,3.30232558 324.634006,4.19477794 323.530792,4.19477794 C322.408164,4.19477794 321.494868,3.30232558 321.494868,2.20586013 C321.494868,1.08924524 322.408164,0.180841239 323.530792,0.180841239 Z" id="形状结合备份-3" fill="#000000"></path>
    </g>
</svg>