<?xml version="1.0" encoding="UTF-8"?>
<svg width="421px" height="42px" viewBox="0 0 421 42" version="1.1" xmlns="http://www.w3.org/2000/svg" xmlns:xlink="http://www.w3.org/1999/xlink">
    <!-- Generator: Sketch 59.1 (86144) - https://sketch.com -->
    <title>realme Buds Air2_white</title>
    <desc>Created with Sketch.</desc>
    <defs>
        <polygon id="path-1" points="0 0.0004 28 0.0004 28 38 0 38"></polygon>
        <polygon id="path-3" points="0 0.0001 23 0.0001 23 31 0 31"></polygon>
        <polygon id="path-5" points="0 0 7 0 7 41.9999 0 41.9999"></polygon>
        <polygon id="path-7" points="0 0.0004 29 0.0004 29 30 0 30"></polygon>
    </defs>
    <g id="页面-1" stroke="none" stroke-width="1" fill="none" fill-rule="evenodd">
        <g id="英文" transform="translate(-533.000000, -297.000000)">
            <g id="realme-Buds-Air2_white" transform="translate(533.000000, 297.000000)">
                <g id="编组" transform="translate(193.000000, 4.000000)">
                    <mask id="mask-2" fill="white">
                        <use xlink:href="#path-1"></use>
                    </mask>
                    <g id="Clip-2"></g>
                    <path d="M28,27.2524 C28,33.3344 23.012,38.0004 16.746,38.0004 L0,38.0004 L0,0.0004 L15.528,0.0004 C21.57,0.0004 26.393,4.5074 26.393,10.3684 C26.393,13.7894 24.729,16.5584 22.18,18.2944 C25.673,19.9234 28,23.1264 28,27.2524 L28,27.2524 Z M5.157,4.7234 L5.157,16.3404 L15.528,16.3404 C18.742,16.3404 21.292,13.7894 21.292,10.5344 C21.292,7.3294 18.742,4.7234 15.528,4.7234 L5.157,4.7234 Z M22.899,27.0894 C22.899,23.6694 20.184,20.9554 16.746,20.9554 L5.157,20.9554 L5.157,33.2764 L16.746,33.2764 C20.184,33.2764 22.899,30.5654 22.899,27.0894 L22.899,27.0894 Z" id="Fill-1" fill="#FFFFFF" mask="url(#mask-2)"></path>
                </g>
                <path d="M250,12 L250,41.238 L244.894,41.238 L244.894,37.029 C242.722,40.479 239.495,42 235.384,42 C228.521,42 224,37.44 224,29.953 L224,12 L229.104,12 L229.104,29.661 C229.104,34.454 231.868,37.147 236.383,37.147 C241.078,37.147 244.894,34.396 244.894,27.498 L244.894,12 L250,12 Z" id="Fill-3" fill="#FFFFFF"></path>
                <path d="M285,0 L285,41.233 L279.899,41.233 L279.899,36.167 C277.56,39.761 273.807,42 268.825,42 C260.68,42 254,35.226 254,26.506 C254,17.79 260.68,11.016 268.825,11.016 C273.807,11.016 277.56,13.254 279.899,16.848 L279.899,0 L285,0 Z M279.899,26.506 C279.899,20.499 275.388,15.963 269.469,15.963 C263.614,15.963 259.099,20.499 259.099,26.506 C259.099,32.514 263.614,37.05 269.469,37.05 C275.388,37.05 279.899,32.514 279.899,26.506 L279.899,26.506 Z" id="Fill-5" fill="#FFFFFF"></path>
                <g id="编组" transform="translate(288.000000, 11.000000)">
                    <mask id="mask-4" fill="white">
                        <use xlink:href="#path-3"></use>
                    </mask>
                    <g id="Clip-8"></g>
                    <path d="M23,22.1611 C23,27.6421 18.232,31.0001 11.857,31.0001 C5.897,31.0001 1.727,28.1721 0,24.1061 L4.467,21.5711 C5.42,24.4011 8.164,26.1671 11.857,26.1671 C15.015,26.1671 17.755,25.0491 17.755,22.1611 C17.755,15.8521 1.072,19.4481 1.072,8.7811 C1.072,3.5931 5.6,0.0001 11.617,0.0001 C16.504,0.0001 20.437,2.2981 22.346,6.1281 L17.995,8.5461 C16.86,5.8931 14.239,4.7731 11.617,4.7731 C8.936,4.7731 6.316,6.0711 6.316,8.7221 C6.316,15.0271 23,11.3171 23,22.1611" id="Fill-7" fill="#FFFFFF" mask="url(#mask-4)"></path>
                </g>
                <path d="M350.542,33.48 L333.463,33.48 L330.369,42 L325,42 L339.152,4 L344.848,4 L359,42 L353.633,42 L350.542,33.48 Z M348.807,28.754 L341.976,10.026 L335.197,28.754 L348.807,28.754 Z" id="Fill-9" fill="#FFFFFF"></path>
                <g id="编组" transform="translate(360.000000, 0.000000)">
                    <mask id="mask-6" fill="white">
                        <use xlink:href="#path-5"></use>
                    </mask>
                    <g id="Clip-12"></g>
                    <path d="M0,3.5029 C0,1.6029 1.557,-0.0001 3.528,-0.0001 C5.443,-0.0001 7,1.6029 7,3.5029 C7,5.4019 5.443,6.9429 3.528,6.9429 C1.557,6.9429 0,5.4019 0,3.5029 L0,3.5029 Z M0.897,41.9999 L6.099,41.9999 L6.099,12.3409 L0.897,12.3409 L0.897,41.9999 Z" id="Fill-11" fill="#FFFFFF" mask="url(#mask-6)"></path>
                </g>
                <path d="M386,12 L386,17.363 C381.679,17.186 377.016,19.426 377.016,26.382 L377.016,42 L372,42 L372,12.53 L377.016,12.53 L377.016,17.481 C378.855,13.355 382.373,12 386,12" id="Fill-13" fill="#FFFFFF"></path>
                <path d="M101.7148,23.0415 C101.7148,19.0795 105.3818,16.4205 108.8088,16.4205 C112.9698,16.4205 115.5568,19.3525 115.5568,24.0735 L115.5568,41.9995 L120.2718,41.9995 L120.2718,23.4995 C120.2718,20.0765 122.1658,16.4205 127.4808,16.4205 C131.6138,16.4205 134.2868,19.4245 134.2868,24.0735 L134.2868,41.9995 L138.9998,41.9995 L138.9998,24.0735 C138.9998,16.6265 134.8068,11.9995 128.0538,11.9995 C124.0778,11.9995 120.6398,13.7055 118.4938,16.7115 C117.0848,14.4185 114.4628,11.9995 109.6708,11.9995 C106.4328,11.9995 103.6578,13.1505 101.7148,15.2675 L101.7148,12.4005 L96.9998,12.4005 L96.9998,41.9995 L101.7148,41.9995 L101.7148,23.0415 Z" id="Fill-15" fill="#FFFFFF"></path>
                <g id="编组" transform="translate(19.000000, 12.000000)">
                    <mask id="mask-8" fill="white">
                        <use xlink:href="#path-7"></use>
                    </mask>
                    <g id="Clip-18"></g>
                    <path d="M29,14.6304 C28.972,10.2284 27.552,6.5044 24.893,3.8584 C22.394,1.3694 18.898,0.0004 15.051,0.0004 C6.33,0.0004 0,6.3194 0,15.0284 C0,23.8414 6.14,30.0004 14.937,30.0004 C20.763,30.0004 25.303,27.5564 28.064,22.9364 L28.3,22.5384 L24.222,19.9904 L23.962,20.4224 C21.809,23.9914 18.94,25.6524 14.937,25.6524 C9.355,25.6524 5.066,21.5914 4.773,16.1274 L29,16.1274 L29,14.6304 Z M4.994,11.9524 C6.138,7.4434 10.144,4.3454 14.937,4.3454 C19.677,4.3454 23.323,7.3784 24.161,11.9524 L4.994,11.9524 Z" id="Fill-17" fill="#FFFFFF" mask="url(#mask-8)"></path>
                </g>
                <polygon id="Fill-19" fill="#FFFFFF" points="4.6592 16.3223 18.0002 16.3223 18.0002 12.0003 0.0002 12.0003 0.0002 41.0003 4.6592 41.0003"></polygon>
                <path d="M156.9365,42 C162.7635,42 167.3025,39.557 170.0635,34.936 L170.3005,34.538 L166.2215,31.99 L165.9595,32.422 C163.8095,35.992 160.9405,37.652 156.9365,37.652 C151.3555,37.652 147.0665,33.592 146.7735,28.127 L170.9995,28.127 L170.9995,26.63 C170.9715,22.228 169.5515,18.504 166.8935,15.858 C164.3945,13.37 160.8975,12 157.0515,12 C148.3295,12 141.9995,18.32 141.9995,27.028 C141.9995,35.842 148.1405,42 156.9365,42 L156.9365,42 Z M146.9935,23.953 C148.1375,19.444 152.1445,16.345 156.9365,16.345 C161.6775,16.345 165.3235,19.378 166.1585,23.953 L146.9935,23.953 Z" id="Fill-21" fill="#FFFFFF"></path>
                <polygon id="Fill-23" fill="#FFFFFF" points="86 42 91 42 91 4 86 4"></polygon>
                <path d="M66.1069,42 C69.5679,42 72.8639,40.876 75.3179,38.885 L75.3179,41.549 L79.9999,41.549 L79.9999,12.451 L75.3179,12.451 L75.3179,15.126 C72.8189,13.128 69.5239,12 66.1069,12 C61.8699,12 58.0109,13.538 55.2389,16.332 C52.5049,19.089 50.9999,22.889 50.9999,27.027 C50.9999,31.164 52.5049,34.952 55.2419,37.695 C58.0079,40.471 61.8649,42 66.1069,42 M55.7409,27.027 C55.7409,21.098 60.0989,16.625 65.8769,16.625 C71.8689,16.625 75.8959,20.807 75.8959,27.027 C75.8959,33.216 71.8689,37.373 65.8769,37.373 C60.0989,37.373 55.7409,32.924 55.7409,27.027" id="Fill-25" fill="#FFFFFF"></path>
                <path d="M401.0156,37.9346 L411.3546,27.3836 C413.4736,25.2646 415.1256,23.1036 415.1256,20.8576 C415.1256,17.8916 413.0916,16.2816 410.5496,16.2816 C408.0916,16.2816 406.1856,17.5956 405.0406,19.9676 L400.9306,17.5526 C402.8376,13.4846 406.5666,11.5356 410.5076,11.5356 C415.3806,11.5356 419.9986,14.7986 419.9986,20.6886 C419.9986,24.3746 417.7956,27.4686 414.9566,30.3496 L408.2616,37.0446 L420.5496,37.0446 L420.5496,41.7476 L401.0156,41.7476 L401.0156,37.9346 Z" id="Fill-27" fill="#FFFFFF"></path>
            </g>
        </g>
    </g>
</svg>