<?xml version="1.0" encoding="UTF-8"?>
<svg width="553px" height="51px" viewBox="0 0 553 51" version="1.1" xmlns="http://www.w3.org/2000/svg" xmlns:xlink="http://www.w3.org/1999/xlink">
    <!-- Generator: Sketch 59.1 (86144) - https://sketch.com -->
    <title>logo</title>
    <desc>Created with Sketch.</desc>
    <defs>
        <polygon id="path-1" points="0.057 0.174987063 37.963434 0.174987063 37.963434 51 0.057 51"></polygon>
        <polygon id="path-3" points="0 51 553 51 553 0 0 0"></polygon>
    </defs>
    <g id="页面-1" stroke="none" stroke-width="1" fill="none" fill-rule="evenodd">
        <g id="web_大雁final" transform="translate(-680.000000, -559.000000)">
            <g id="kv备份">
                <g id="logo" transform="translate(680.000000, 558.000000)">
                    <path d="M259.988197,37.7917486 C259.988197,33.6514803 256.787013,30.3670475 252.734924,30.3670475 L239.076986,30.3670475 L239.076986,45.2819961 L252.734924,45.2819961 C256.787013,45.2819961 259.988197,41.9973857 259.988197,37.7917486 L259.988197,37.7917486 Z M239.076986,10.7183591 L239.076986,24.7797815 L251.298259,24.7797815 C255.087499,24.7797815 258.093489,21.6916331 258.093489,17.7503138 C258.093489,13.8718765 255.087499,10.7183591 251.298259,10.7183591 L239.076986,10.7183591 Z M266,37.9880329 C266,45.3496743 260.120682,51 252.734924,51 L233,51 L233,5 L251.298259,5 C258.421344,5 264.105292,10.4563506 264.105292,17.5515425 C264.105292,21.6916331 262.145578,25.0439217 259.139588,27.1454968 C263.25686,29.118821 266,32.9945938 266,37.9880329 L266,37.9880329 Z" id="Fill-1" fill="#FFFFFF"></path>
                    <path d="M302,15 L302,51.0621949 L295.714673,51.0621949 L295.714673,45.8694467 C293.041561,50.1243899 289.070112,52 284.011926,52 C275.559993,52 270,46.3749738 270,37.1434214 L270,15 L276.282978,15 L276.282978,36.7825883 C276.282978,42.6948376 279.678894,46.0141408 285.241417,46.0141408 C291.020239,46.0141408 295.714673,42.6235731 295.714673,34.1136868 L295.714673,15 L302,15 Z" id="Fill-3" fill="#FFFFFF"></path>
                    <g id="编组" transform="translate(307.000000, 1.000000)">
                        <mask id="mask-2" fill="white">
                            <use xlink:href="#path-1"></use>
                        </mask>
                        <g id="Clip-6"></g>
                        <path d="M31.728566,32.2513122 C31.728566,24.9809591 26.2110377,19.4916829 18.9736509,19.4916829 C11.8095755,19.4916829 6.29186792,24.9809591 6.29186792,32.2513122 C6.29186792,39.5216654 11.8095755,45.0109416 18.9736509,45.0109416 C26.2110377,45.0109416 31.728566,39.5216654 31.728566,32.2513122 L31.728566,32.2513122 Z M37.963434,0.174987063 L37.963434,50.0729591 L31.728566,50.0729591 L31.728566,43.9429731 C28.862434,48.2917038 24.2766226,51.0000535 18.1856887,51.0000535 C8.22610377,51.0000535 0.057,42.8026059 0.057,32.2513122 C0.057,21.7023367 8.22610377,13.5048892 18.1856887,13.5048892 C24.2766226,13.5048892 28.862434,16.2132388 31.728566,20.5617913 L31.728566,0.174987063 L37.963434,0.174987063 Z" id="Fill-5" fill="#FFFFFF" mask="url(#mask-2)"></path>
                    </g>
                    <path d="M376,41.4490338 C376,47.9913015 370.404308,52 362.920289,52 C355.92445,52 351.028832,48.6233741 349,43.7696833 L354.245742,40.7451669 C355.364881,44.1216168 358.584241,46.2312821 362.920289,46.2312821 C366.627829,46.2312821 369.844739,44.8949907 369.844739,41.4490338 C369.844739,33.9204725 350.259643,38.2115976 350.259643,25.4816353 C350.259643,19.2890135 355.5745,15 362.639455,15 C368.375476,15 372.992709,17.7419139 375.230811,22.3158175 L370.123474,25.1988567 C368.794716,22.0332149 365.718135,20.6969234 362.639455,20.6969234 C359.491485,20.6969234 356.414904,22.2440231 356.414904,25.4098408 C356.414904,32.9361146 376,28.5059757 376,41.4490338" id="Fill-7" fill="#FFFFFF"></path>
                    <path d="M421.707477,34.9652535 L413.467386,12.2960948 L405.292523,34.9652535 L421.707477,34.9652535 Z M423.798832,40.6832573 L403.201168,40.6832573 L399.474345,51 L393,51 L410.066349,5 L416.933651,5 L434,51 L427.52813,51 L423.798832,40.6832573 Z" id="Fill-9" fill="#FFFFFF"></path>
                    <mask id="mask-4" fill="white">
                        <use xlink:href="#path-3"></use>
                    </mask>
                    <g id="Clip-12"></g>
                    <path d="M437.026404,51 L442.973596,51 L442.973596,15.6889751 L437.026404,15.6889751 L437.026404,51 Z M436,5.16860991 C436,2.90879477 437.778291,1 440.03378,1 C442.221709,1 444,2.90879477 444,5.16860991 C444,7.42842505 442.221709,9.2628466 440.03378,9.2628466 C437.778291,9.2628466 436,7.42842505 436,5.16860991 L436,5.16860991 Z" id="Fill-11" fill="#FFFFFF" mask="url(#mask-4)"></path>
                    <path d="M467,15 L467,21.4358254 C461.444662,21.2238692 455.443118,23.9108298 455.443118,32.2583302 L455.443118,51 L449,51 L449,15.6356917 L455.443118,15.6356917 L455.443118,21.5778962 C457.813494,16.6275335 462.332441,15 467,15" id="Fill-13" fill="#FFFFFF" mask="url(#mask-4)"></path>
                    <path d="M123.612751,28.2508352 C123.612751,23.4974957 127.979028,20.3043843 132.056857,20.3043843 C137.012565,20.3043843 140.091237,23.824179 140.091237,29.4900644 L140.091237,51 L145.703989,51 L145.703989,28.8015248 C145.703989,24.6937357 147.958268,20.3043843 154.284904,20.3043843 C159.206896,20.3043843 162.387249,23.90998 162.387249,29.4900644 L162.387249,51 L168,51 L168,29.4900644 C168,20.5521946 163.00669,15 154.968779,15 C150.235674,15 146.141428,17.0485653 143.586166,20.656648 C141.909137,17.9030224 138.787392,15 133.082845,15 C129.22815,15 125.926345,16.3804545 123.612751,18.9232193 L123.612751,15.4821199 L118,15.4821199 L118,51 L123.612751,51 L123.612751,28.2508352 Z" id="Fill-14" fill="#FFFFFF" mask="url(#mask-4)"></path>
                    <path d="M29.8552309,28.7423488 C31.1952742,23.1820193 35.8934981,19.359304 41.5097113,19.359304 C47.0709961,19.359304 51.3431298,23.1010706 52.325173,28.7423488 L29.8552309,28.7423488 Z M58,32.0441926 C57.9666569,26.6163246 56.3019567,22.0228919 53.1859525,18.7599967 C50.254915,15.6905886 46.1565166,14 41.6455407,14 C31.4209546,14 24,21.7951228 24,32.5349102 C24,43.4066206 31.2001879,51 41.5097113,51 C48.3418962,51 53.6645143,47.9883867 56.9014313,42.2900317 L57.1802852,41.799673 L52.3976505,38.6552393 L52.0919465,39.1886749 C49.5690993,43.5905949 46.2065313,45.6405165 41.5097113,45.6405165 C34.9684892,45.6405165 29.9413966,40.6317508 29.5979622,33.8927298 L58,33.8927298 L58,32.0441926 Z" id="Fill-15" fill="#FFFFFF" mask="url(#mask-4)"></path>
                    <polygon id="Fill-16" fill="#FFFFFF" mask="url(#mask-4)" points="5.69427146 20.3657933 22 20.3657933 22 15 0 15 0 51 5.69427146 51"></polygon>
                    <path d="M178.855642,28.7423488 C180.195699,23.1820193 184.893972,19.359304 190.509892,19.359304 C196.071234,19.359304 200.343061,23.1010706 201.325114,28.7423488 L178.855642,28.7423488 Z M190.509892,51 C197.341972,51 202.664821,47.9883867 205.901771,42.2900317 L206.180628,41.799673 L201.397944,38.6552393 L201.092237,39.1886749 C198.569363,43.5905949 195.206761,45.6405165 190.509892,45.6405165 C183.968602,45.6405165 178.941458,40.6317508 178.59802,33.8927298 L207,33.8927298 L207,32.0441926 C206.966657,26.6163246 205.301939,22.0228919 202.186254,18.7599967 C199.255186,15.6905886 195.15657,14 190.645898,14 C180.421031,14 173,21.7951228 173,32.5349102 C173,43.4066206 180.200262,51 190.509892,51 L190.509892,51 Z" id="Fill-17" fill="#FFFFFF" mask="url(#mask-4)"></path>
                    <polygon id="Fill-18" fill="#FFFFFF" mask="url(#mask-4)" points="105 51 110 51 110 5 105 5"></polygon>
                    <path d="M68.5574805,33.5345516 C68.5574805,26.221819 73.6657482,20.7068463 80.439949,20.7068463 C87.4663733,20.7068463 92.187304,25.8621235 92.187304,33.5345516 C92.187304,41.1658768 87.4663733,46.2931537 80.439949,46.2931537 C73.6657482,46.2931537 68.5574805,40.8079761 68.5574805,33.5345516 M80.7108751,52 C84.769173,52 88.6308311,50.613808 91.5101636,48.1592987 L91.5101636,51.4435847 L97,51.4435847 L97,15.5564153 L91.5101636,15.5564153 L91.5101636,18.8572142 C88.5794425,16.3924741 84.7160366,15 80.7108751,15 C75.7424403,15 71.2179747,16.898094 67.9707071,20.3442789 C64.7652145,23.7461301 63,28.4304287 63,33.5345516 C63,38.6349052 64.7655641,43.3075371 67.9719306,46.6917983 C71.2146537,50.1148292 75.7385949,52 80.7108751,52" id="Fill-19" fill="#FFFFFF" mask="url(#mask-4)"></path>
                    <path d="M549.380146,42.021512 C549.380146,44.9818183 546.965722,47.3895886 543.998824,47.3895886 L487.001176,47.3895886 C484.034278,47.3895886 481.620032,44.9818183 481.620032,42.021512 L481.620032,13.9775994 C481.620032,11.0187148 484.034278,8.61041139 487.001176,8.61041139 L543.998824,8.61041139 C546.965722,8.61041139 549.380146,11.0187148 549.380146,13.9775994 L549.380146,42.021512 Z M543.998824,5 L487.001176,5 C482.030869,5 478,9.01934846 478,13.9775994 L478,42.021512 C478,46.9804738 482.030869,51 487.001176,51 L543.998824,51 C548.969309,51 553,46.9804738 553,42.021512 L553,13.9775994 C553,9.01934846 548.969309,5 543.998824,5 L543.998824,5 Z M531.043744,36.5563995 C528.041571,36.5563995 525.723175,34.2762332 525.723175,31.1810363 C525.723175,28.0851286 528.041571,25.8049623 531.043744,25.8049623 C534.044671,25.8049623 536.363066,28.0851286 536.363066,31.1810363 C536.363066,34.2762332 534.044671,36.5563995 531.043744,36.5563995 L531.043744,36.5563995 Z M531.043744,22.2336496 C526.062926,22.2336496 522.03954,26.1122427 522.03954,31.1810363 C522.03954,36.2151743 526.062926,40.1277122 531.043744,40.1277122 C536.057166,40.1277122 540.045098,36.2151743 540.045098,31.1810363 C540.045098,26.1122427 536.057166,22.2336496 531.043744,22.2336496 L531.043744,22.2336496 Z M521.05574,22.3685402 L521.05574,26.3502117 C518.634012,26.1799546 515.802872,27.3024433 515.802872,31.1131468 L515.802872,39.6853635 L512.117989,39.6853635 L512.117989,22.6758206 L515.802872,22.6758206 L515.802872,25.5330485 C516.825332,23.2196483 518.904281,22.3685402 521.05574,22.3685402 L521.05574,22.3685402 Z M501.390978,27.8469818 L496.513671,27.8469818 L496.513671,19.5466789 L501.390978,19.5466789 C503.709195,19.5466789 505.378732,21.2799963 505.378732,23.6966527 C505.378732,26.0782979 503.709195,27.8469818 501.390978,27.8469818 L501.390978,27.8469818 Z M501.390978,15.8722878 L492.589163,15.8722878 L492.589163,39.6853635 L496.513671,39.6853635 L496.513671,31.5199512 L501.390978,31.5199512 C505.891477,31.5199512 509.30324,28.0851286 509.30324,23.6966527 C509.30324,19.2733433 505.891477,15.8722878 501.390978,15.8722878 L501.390978,15.8722878 Z" id="Fill-20" fill="#FFFFFF" mask="url(#mask-4)"></path>
                </g>
            </g>
        </g>
    </g>
</svg>