<?xml version="1.0" encoding="utf-8"?>
<!-- Generator: Adobe Illustrator 25.2.0, SVG Export Plug-In . SVG Version: 6.00 Build 0)  -->
<svg version="1.1" id="图层_1" xmlns="http://www.w3.org/2000/svg" xmlns:xlink="http://www.w3.org/1999/xlink" x="0px" y="0px"
	 viewBox="0 0 280.6 30.2" style="enable-background:new 0 0 280.6 30.2;" xml:space="preserve">
<g>
	<path d="M266.2,8.4c1.2-2.4,3.1-3.6,5.7-3.6c3.4,0,4.9,2.6,4.9,5c0,2.5-2,4.8-3.9,6.7l-9.6,9.8V29h17.3v-3.3h-12.5l7.2-7.1
		c2.2-2.2,4.8-5.3,4.8-8.9c0-4.1-2.9-8.2-8.4-8.2c-3.7,0-6.8,1.9-8.4,5.2L266.2,8.4z"/>
	<path d="M156.4,21.4c0-2.8-1.4-5-4-6.2l-0.2-0.1l0.2-0.1c1.9-1.3,2.9-3.3,2.9-5.5c0-4.1-3.3-7.2-7.4-7.2h-10.7v26.7h11.5
		C153,28.9,156.4,25.6,156.4,21.4z M140.5,5.3h7.3c2.3,0,4.1,1.9,4.1,4.2c0,2.4-1.8,4.2-4.1,4.2h-7.3V5.3z M140.5,16.8h8.2
		c2.5,0,4.4,2,4.4,4.5c0,2.5-1.9,4.5-4.4,4.5h-8.2V16.8z"/>
	<path d="M166.9,29.5c3,0,5.2-1.1,6.6-3.5l0.2-0.4v3.3h3.4V8.3h-3.4v10.9c0,4.4-2.2,7-6.2,7c-3.3,0-5.3-2-5.3-5.5V8.3H159V21
		C159,26.2,162,29.5,166.9,29.5z"/>
	<path d="M202.1,28.9V0h-3.4v12.2l-0.2-0.3c-1.7-2.7-4.4-4.1-7.8-4.1c-5.8,0-10.4,4.8-10.4,10.8c0,6.1,4.6,10.8,10.4,10.8
		c3.3,0,6-1.4,7.8-4.1l0.2-0.3v3.9H202.1z M191.2,26.2c-4.3,0-7.5-3.3-7.5-7.6s3.2-7.6,7.5-7.6c4.3,0,7.5,3.3,7.5,7.6
		S195.5,26.2,191.2,26.2z"/>
	<path d="M213.2,29.5c4.6,0,7.7-2.5,7.7-6.1c0-4.3-3.7-5.3-6.9-6.2c-2.6-0.7-4.8-1.3-4.8-3.3c0-2,2-2.9,3.8-2.9c2.1,0,3.8,1,4.5,2.6
		l2.8-1.6c-1.4-2.6-4-4.2-7.3-4.2c-4.2,0-7.2,2.6-7.2,6.1c0,4.2,3.7,5.2,6.9,6.1c2.6,0.7,4.8,1.3,4.8,3.4c0,1.9-1.6,3-4.2,3
		c-2.6,0-4.5-1.2-5.2-3.2l-2.9,1.7C206.4,27.7,209.4,29.5,213.2,29.5z"/>
	<path d="M255.5,25.1c2.4-2.6,3.8-6,3.8-9.5c0-7.6-6.2-13.9-13.9-13.9c-7.6,0-13.8,6.2-13.8,13.9s6.2,13.9,13.8,13.9
		c2.7,0,5.3-0.8,7.6-2.3l0.1-0.1l3,3.1l2.3-2.1L255.5,25.1L255.5,25.1z M253.2,22.8L253.2,22.8l-5.6-5.6l-2.3,2l5.4,5.5l-0.1,0.1
		c-1.5,0.9-3.3,1.3-5.1,1.3c-5.9,0-10.5-4.7-10.5-10.6c0-6,4.6-10.6,10.5-10.6c5.9,0,10.5,4.7,10.5,10.6
		C256,18.2,255,20.8,253.2,22.8L253.2,22.8z"/>
	<g>
		<path d="M72.1,15.7c0-2.8,2.6-4.7,5-4.7c2.9,0,4.7,2.1,4.7,5.4V29h3.3V16c0-2.4,1.3-5,5.1-5c2.9,0,4.8,2.1,4.8,5.4V29h3.3V16.4
			c0-5.2-2.9-8.5-7.7-8.5c-2.8,0-5.2,1.2-6.7,3.3c-1-1.6-2.8-3.3-6.2-3.3c-2.3,0-4.2,0.8-5.6,2.3v-2h-3.3V29h3.3V15.7z"/>
		<path d="M34.3,18.3c0-3.2-1-5.8-2.9-7.7c-1.7-1.8-4.2-2.8-6.9-2.8c-6.1,0-10.5,4.5-10.5,10.8c0,6.3,4.3,10.7,10.4,10.7
			c4.1,0,7.2-1.7,9.1-5.1l0.2-0.3l-2.8-1.8l-0.2,0.3c-1.5,2.6-3.5,3.7-6.3,3.7c-3.9,0-6.9-2.9-7.1-6.8h16.9V18.3z M17.5,16.4
			c0.8-3.2,3.6-5.4,6.9-5.4c3.3,0,5.8,2.2,6.4,5.4H17.5z"/>
		<polygon points="3.3,11.3 12.8,11.3 12.8,8.2 0,8.2 0,29.1 3.3,29.1 		"/>
		<path d="M111.6,29.3c4.1,0,7.2-1.7,9.1-5.1l0.2-0.3l-2.8-1.8l-0.2,0.3c-1.5,2.6-3.5,3.7-6.3,3.7c-3.9,0-6.9-2.9-7.1-6.8h16.9v-1.1
			c0-3.2-1-5.8-2.9-7.7c-1.7-1.8-4.2-2.8-6.9-2.8c-6.1,0-10.5,4.5-10.5,10.8C101.2,24.9,105.4,29.3,111.6,29.3z M104.6,16.4
			c0.8-3.2,3.6-5.4,6.9-5.4c3.3,0,5.8,2.2,6.4,5.4H104.6z"/>
		<rect x="61.2" y="2" width="3.3" height="27"/>
		<path d="M47.2,29.4c2.4,0,4.7-0.8,6.4-2.2v1.9h3.3V8.2h-3.3v1.9c-1.7-1.4-4.1-2.2-6.4-2.2c-3,0-5.7,1.1-7.6,3.1
			c-1.9,2-3,4.7-3,7.7c0,3,1.1,5.7,3,7.6C41.5,28.3,44.2,29.4,47.2,29.4z M40,18.7c0-4.2,3-7.4,7.1-7.4c4.2,0,7,3,7,7.4
			c0,4.4-2.8,7.4-7,7.4C43,26.1,40,22.9,40,18.7z"/>
	</g>
</g>
</svg>
