<svg id="图层_1" data-name="图层 1" xmlns="http://www.w3.org/2000/svg" viewBox="0 0 742 63"><defs><style>.cls-1{fill:#fff;}</style></defs><title>buds air 2 neo svg</title><path class="cls-1" d="M193.62,17.19a17.26,17.26,0,0,0-14.36,7c-2.12-3.41-6-7-13.25-7A15.9,15.9,0,0,0,154.06,22V17.78H147v44h7.08V33.59c0-5.88,5.51-9.84,10.66-9.84,6.25,0,10.13,4.36,10.13,11.37V61.75h7.08V34.27c0-5.08,2.84-10.52,10.83-10.52,6.2,0,10.21,4.47,10.21,11.37V61.75h7.08V35.12C210.05,24.06,203.75,17.19,193.62,17.19ZM52.35,17C39.37,17,30,26.57,30,39.73c0,13.32,9.13,22.62,22.21,22.62,8.67,0,15.43-3.69,19.53-10.67l.36-.6L66,47.22l-.39.66c-3.2,5.39-7.47,7.9-13.43,7.9A14.87,14.87,0,0,1,37.06,41.39h36V39.12c0-6.64-2.16-12.27-6.11-16.27A20.34,20.34,0,0,0,52.35,17Zm-15,18.06a15.08,15.08,0,0,1,14.79-11.5A13.54,13.54,0,0,1,65.9,35.08ZM-.1,61.84H7V24.35H27.26V17.78H-.1ZM238.48,17c-13,0-22.39,9.55-22.39,22.71,0,13.32,9.14,22.62,22.22,22.62,8.67,0,15.42-3.69,19.53-10.67l.35-.6-6.06-3.86-.39.66c-3.2,5.39-7.47,7.9-13.43,7.9A14.86,14.86,0,0,1,223.2,41.39h36V39.12c-.05-6.64-2.16-12.27-6.11-16.27A20.35,20.35,0,0,0,238.48,17Zm-15,18.06a15.08,15.08,0,0,1,14.79-11.5A13.52,13.52,0,0,1,252,35.08Zm-92.8,26.67h7.08V4.8h-7.08ZM114.54,21.91a22,22,0,0,0-13.76-4.72,22.45,22.45,0,0,0-16.23,6.54A22.88,22.88,0,0,0,78.22,39.9,22.72,22.72,0,0,0,84.55,56a22.47,22.47,0,0,0,16.23,6.51,21.77,21.77,0,0,0,13.76-4.71v4h7v-44h-7Zm-14.1,33.62c-8.64,0-15.14-6.72-15.14-15.63s6.5-15.72,15.14-15.72c9,0,15,6.31,15,15.72S109.39,55.53,100.44,55.53Zm524-15.85C629.21,35,634.69,28.6,634.69,21c0-8.54-6.1-17.19-17.74-17.19a19.35,19.35,0,0,0-17.9,10.89l6,3.49a12.76,12.76,0,0,1,12-7.55c7.21,0,10.49,5.41,10.49,10.44,0,5.19-4.16,10-8.24,14L599,55.62v5.83h36.79V54.63H609.23ZM371,41.19c0,9.35-4.79,14.72-13.13,14.72-7,0-11.26-4.29-11.26-11.47V18.23h-7.21V44.87c0,11,6.5,17.8,17,17.8,6.4,0,11-2.39,14.16-7.33l.48-.75v6.94h7.2V18.23H371Zm52.89-14.83-.48-.71c-3.72-5.6-9.44-8.56-16.55-8.56-12.45,0-22.2,10-22.2,22.79s9.75,22.79,22.2,22.79c7.11,0,12.83-3,16.55-8.56l.48-.71v8.13h7.2V.7h-7.2ZM407.8,55.82a15.6,15.6,0,0,1-16-15.94,16,16,0,0,1,32,0A15.65,15.65,0,0,1,407.8,55.82Zm48.38-19c-5.43-1.48-10.12-2.76-10.12-7s4.23-6.12,8.15-6.12c4.44,0,8,2.05,9.62,5.5l6-3.34c-2.88-5.56-8.57-8.75-15.64-8.75-8.95,0-15.45,5.38-15.45,12.8,0,8.77,7.79,10.92,14.66,12.81,5.47,1.51,10.19,2.81,10.19,7.08,0,3.89-3.38,6.22-9,6.22-5.44,0-9.58-2.51-11.14-6.72l-6.19,3.5c2.74,6.2,9.2,9.89,17.33,9.89,9.77,0,16.34-5.18,16.34-12.89C470.91,40.83,463.08,38.69,456.18,36.81Zm91.43,24.72h7.2V18.23h-7.2ZM551.26,0a5,5,0,0,0-5,4.92,4.93,4.93,0,0,0,9.86,0A4.9,4.9,0,0,0,551.26,0Zm20.28,25.44-.49,1.06V18.23h-7.2v43.3h7.2v-23c0-4.4,1.28-7.85,3.8-10.24a13.94,13.94,0,0,1,10-3.43V17.44C580.41,17.49,574.55,19,571.54,25.44Zm-246.17,7-.4-.19.36-.25a13.82,13.82,0,0,0,6.17-11.69c0-8.59-7-15.32-15.92-15.32H292.72V61.5h24.67c9.26,0,16.5-7,16.5-15.89A14.16,14.16,0,0,0,325.37,32.4ZM299.89,11.53h15.69a8.92,8.92,0,0,1,8.84,9,8.81,8.81,0,0,1-8.84,9H299.89Zm17.5,43.38h-17.5v-19h17.5a9.51,9.51,0,0,1,0,19Zm196-50L492,61.5h7.62l4.7-12.8h26.36l.06.17,4.65,12.63h7.62L521.7,5Zm-6.57,37.17L517.5,13l10.77,29.12ZM731.11,4.53h-71a10.92,10.92,0,0,0-11,10.84V50.85a10.92,10.92,0,0,0,11,10.84h71a10.92,10.92,0,0,0,11-10.84V15.37A10.92,10.92,0,0,0,731.11,4.53Zm7,46.32a7,7,0,0,1-7,7h-71a7,7,0,0,1-7-7V15.37a7,7,0,0,1,7-7h71a7,7,0,0,1,7,7ZM680,38.33,665.93,18.17l-.08-.12h-3.46V46.61h4.32V26.3l14.08,20.19.09.12h3.46V18.05H680Zm18-12.8a10.5,10.5,0,0,0-10.9,10.8c0,6.36,4.59,10.8,11.15,10.8a10.49,10.49,0,0,0,9.14-4.65l.16-.24-3.49-2-.14.23a6.43,6.43,0,0,1-5.6,2.79c-3.65,0-6.23-1.9-7-5.09h16.88l0-.24a9.77,9.77,0,0,0,.13-1.6C708.42,30.19,704,25.53,698.05,25.53Zm-6.68,9.08a6.41,6.41,0,0,1,6.68-5.24,6.06,6.06,0,0,1,6.19,5.24Zm29.1-9.08a10.8,10.8,0,1,0,11,10.8A10.76,10.76,0,0,0,720.47,25.53Zm0,17.65a6.85,6.85,0,1,1,6.89-6.85A6.78,6.78,0,0,1,720.47,43.18Z"/></svg>