<svg id="图层_1" data-name="图层 1" xmlns="http://www.w3.org/2000/svg" viewBox="0 0 304.22 46.2"><defs><style>.cls-1{fill:#231815;}</style></defs><title>realme_c21_black</title><path d="M413.55,92.6c-7.42,0-12.81-5.34-12.81-12.71a12.36,12.36,0,0,1,12.81-12.75,11.64,11.64,0,0,1,9.23,4.29l4.86-2.81a17.53,17.53,0,0,0-14.09-6.93c-10.46,0-18.35,7.82-18.35,18.2A17.88,17.88,0,0,0,413.55,98.1a17.42,17.42,0,0,0,14.23-7.18L423,88.1A11.85,11.85,0,0,1,413.55,92.6Z" transform="translate(-168.48 -51.92)"/><path class="cls-1" d="M290.33,75c0-4.71,4.36-7.88,8.42-7.88,4.94,0,8,3.49,8,9.11V97.51h5.6v-22c0-4.07,2.25-8.42,8.55-8.42,4.91,0,8.08,3.58,8.08,9.11V97.51h5.6V76.2c0-8.86-5-14.36-13-14.36a13.59,13.59,0,0,0-11.35,5.6,11.59,11.59,0,0,0-10.48-5.6,12.46,12.46,0,0,0-9.44,3.89V62.32h-5.59V97.51h5.59Z" transform="translate(-168.48 -51.92)"/><path class="cls-1" d="M226.34,79.4c0-5.33-1.71-9.83-4.83-13a16,16,0,0,0-11.58-4.67c-10.25,0-17.69,7.65-17.69,18.18S199.46,98,209.8,98c6.85,0,12.19-3,15.43-8.55l.28-.48-4.79-3.08-.31.52c-2.53,4.32-5.9,6.33-10.61,6.33a11.82,11.82,0,0,1-12-11.52h28.49Zm-28.23-3.24A11.93,11.93,0,0,1,209.8,67a10.72,10.72,0,0,1,10.84,9.2Z" transform="translate(-168.48 -51.92)"/><polygon class="cls-1" points="5.6 15.65 21.62 15.65 21.62 10.39 0 10.39 0 45.65 5.6 45.65 5.6 15.65"/><path class="cls-1" d="M356.92,98c6.85,0,12.19-3,15.44-8.55l.28-.48-4.8-3.08-.3.52c-2.54,4.32-5.91,6.33-10.62,6.33A11.83,11.83,0,0,1,345,81.21h28.49V79.4c0-5.33-1.7-9.83-4.83-13a16,16,0,0,0-11.57-4.67c-10.26,0-17.7,7.65-17.7,18.18S346.58,98,356.92,98ZM345.23,76.16A11.94,11.94,0,0,1,356.92,67a10.73,10.73,0,0,1,10.85,9.2Z" transform="translate(-168.48 -51.92)"/><rect class="cls-1" x="103.4" width="5.6" height="45.58"/><path class="cls-1" d="M248.22,98.12a17.11,17.11,0,0,0,10.87-3.76v3.22h5.53V62.38h-5.53v3.24a17.21,17.21,0,0,0-10.87-3.78,17.61,17.61,0,0,0-12.83,5.24,19.16,19.16,0,0,0,0,25.84A17.68,17.68,0,0,0,248.22,98.12ZM236,80c0-7.17,5.14-12.57,12-12.57,7.08,0,11.83,5,11.83,12.57S255,92.53,247.94,92.53C241.12,92.53,236,87.15,236,80Z" transform="translate(-168.48 -51.92)"/><path d="M413.55,92.6c-7.42,0-12.81-5.34-12.81-12.71a12.36,12.36,0,0,1,12.81-12.75,11.64,11.64,0,0,1,9.23,4.29l4.86-2.81a17.53,17.53,0,0,0-14.09-6.93c-10.46,0-18.35,7.82-18.35,18.2A17.88,17.88,0,0,0,413.55,98.1a17.42,17.42,0,0,0,14.23-7.18L423,88.1A11.85,11.85,0,0,1,413.55,92.6Z" transform="translate(-168.48 -51.92)"/><polygon points="290.18 13.71 291.59 18.61 298.67 16.51 298.67 45.54 304.21 45.54 304.21 10.4 299.79 10.4 290.18 13.71"/><path d="M439.62,92.07l7.9-7.85c2.9-2.9,6.22-6.83,6.22-11.58,0-7.08-5.71-10.89-11.08-10.89a12,12,0,0,0-11.18,7l-.19.4,4.61,2.72.23-.47a6.88,6.88,0,0,1,6.58-4.3,5.29,5.29,0,0,1,5.56,5.61c0,2.87-2.37,5.62-4.68,7.94L431.43,93V97.4h22.95V92.07Z" transform="translate(-168.48 -51.92)"/></svg>