<?xml version="1.0" encoding="UTF-8"?>
<svg width="4553px" height="223px" viewBox="0 0 4553 223" version="1.1" xmlns="http://www.w3.org/2000/svg" xmlns:xlink="http://www.w3.org/1999/xlink">
    <title>编组</title>
    <defs>
        <filter id="filter-1">
            <feColorMatrix in="SourceGraphic" type="matrix" values="0 0 0 0 0.000000 0 0 0 0 0.000000 0 0 0 0 0.000000 0 0 0 1.000000 0"></feColorMatrix>
        </filter>
        <polygon id="path-2" points="0 222 4552.989 222 4552.989 0.674 0 0.674"></polygon>
    </defs>
    <g id="控件" stroke="none" stroke-width="1" fill="none" fill-rule="evenodd">
        <g filter="url(#filter-1)" id="编组">
            <g>
                <polygon id="Fill-1" fill="#231815" points="1155.5103 218.3341 1129.3753 218.3341 1129.3753 62.9411 1064.3223 171.1791 1060.9063 171.1791 995.8523 63.2341 995.8523 218.3341 969.4353 218.3341 969.4353 19.4841 999.2683 19.4841 1062.6143 124.5891 1125.6773 19.4841 1155.5103 19.4841"></polygon>
                <polygon id="Fill-2" fill="#231815" points="1245.8394 19.4845 1245.8394 218.3345 1219.7044 218.3345 1219.7044 47.8925 1177.3804 60.3845 1170.8514 37.6665 1223.1204 19.4845"></polygon>
                <g transform="translate(0.000000, 0.326000)">
                    <path d="M1329.3569,172.8431 L1352.0859,159.7771 C1359.1799,181.6461 1376.2299,195.8561 1405.2039,195.8561 C1433.3299,195.8561 1447.2459,183.0711 1447.2459,165.1731 C1447.2459,144.7181 1429.6409,137.8961 1400.3729,128.8111 C1368.5589,118.5831 1337.8769,108.6391 1337.8769,71.7111 C1337.8769,35.9141 1367.1339,15.4601 1400.3729,15.4601 C1433.0459,15.4601 1456.6239,33.9241 1467.7009,58.9261 L1445.5479,71.7111 C1438.4429,54.6611 1424.5269,41.0291 1400.3729,41.0291 C1379.0689,41.0291 1364.2939,52.3881 1364.2939,70.5691 C1364.2939,89.0431 1378.2199,95.8551 1406.0529,104.6671 C1440.7169,116.0271 1473.3799,126.2541 1473.3799,164.6071 C1473.3799,199.5441 1445.2649,221.7071 1404.6379,221.7071 C1366.8509,221.7071 1339.8669,202.6671 1329.3569,172.8431" id="Fill-3" fill="#231815"></path>
                    <path d="M1620.1021,141.262 C1620.1021,110.266 1596.4631,86.627 1565.7711,86.627 C1535.3821,86.627 1511.7431,110.266 1511.7431,141.262 C1511.7431,172.268 1535.3821,195.906 1565.7711,195.906 C1596.4631,195.906 1620.1021,172.268 1620.1021,141.262 M1485.0331,141.262 C1485.0331,95.834 1520.9501,60.533 1565.7711,60.533 C1610.5921,60.533 1646.8121,95.834 1646.8121,141.262 C1646.8121,186.7 1610.5921,222 1565.7711,222 C1520.9501,222 1485.0331,186.7 1485.0331,141.262" id="Fill-5" fill="#231815"></path>
                    <path d="M1803.7212,123.7679 L1803.7212,218.0079 L1777.0112,218.0079 L1777.0112,125.3039 C1777.0112,100.1289 1762.5892,86.0109 1738.9502,86.0109 C1714.3922,86.0109 1694.4332,100.4429 1694.4332,136.6639 L1694.4332,218.0079 L1667.7322,218.0079 L1667.7322,64.5259 L1694.4332,64.5259 L1694.4332,86.6269 C1705.7922,68.5169 1722.6792,60.5339 1744.1652,60.5339 C1780.0832,60.5339 1803.7212,84.4749 1803.7212,123.7679" id="Fill-7" fill="#231815"></path>
                    <mask id="mask-3" fill="white">
                        <use xlink:href="#path-2"></use>
                    </mask>
                    <g id="Clip-10"></g>
                    <path d="M1830.159,218.008 L1856.86,218.008 L1856.86,64.526 L1830.159,64.526 L1830.159,218.008 Z M1825.551,18.784 C1825.551,8.961 1833.535,0.674 1843.661,0.674 C1853.484,0.674 1861.468,8.961 1861.468,18.784 C1861.468,28.608 1853.484,36.592 1843.661,36.592 C1833.535,36.592 1825.551,28.608 1825.551,18.784 L1825.551,18.784 Z" id="Fill-9" fill="#231815" mask="url(#mask-3)"></path>
                    <path d="M1878.3555,141.262 C1878.3555,95.834 1912.7365,60.533 1959.0935,60.533 C1989.4835,60.533 2015.2645,76.492 2026.9375,100.746 L2004.5215,113.642 C1996.8505,97.37 1979.6605,86.627 1959.0935,86.627 C1928.3915,86.627 1905.0665,110.266 1905.0665,141.262 C1905.0665,171.964 1928.3915,195.603 1959.0935,195.603 C1979.9635,195.603 1996.8505,184.86 2005.4405,168.892 L2028.1595,182.091 C2015.2645,206.042 1989.1805,222 1959.0935,222 C1912.7365,222 1878.3555,186.7 1878.3555,141.262" id="Fill-11" fill="#231815" mask="url(#mask-3)"></path>
                    <polygon id="Fill-12" fill="#231815" mask="url(#mask-3)" points="2225.0283 193.0159 2225.0283 218.0079 2106.2803 218.0079 2106.2803 19.1589 2223.6033 19.1589 2223.6033 44.1519 2132.6983 44.1519 2132.6983 105.2329 2216.5083 105.2329 2216.5083 129.9429 2132.6983 129.9429 2132.6983 193.0159"></polygon>
                    <polygon id="Fill-13" fill="#231815" mask="url(#mask-3)" points="2245.857 218.009 2272.558 218.009 2272.558 19.159 2245.857 19.159"></polygon>
                    <path d="M2321.3804,130.2151 L2423.9074,130.2151 C2419.2994,99.8261 2397.5104,85.7081 2374.4794,85.7081 C2345.6254,85.7081 2325.6754,103.5051 2321.3804,130.2151 M2376.9444,196.8251 C2398.1164,196.8251 2413.4684,187.0021 2421.1494,174.4201 L2443.8584,187.3161 C2430.3564,208.1851 2407.0204,222.0001 2376.3274,222.0001 C2326.8994,222.0001 2294.0534,187.3161 2294.0534,141.2621 C2294.0534,95.8341 2326.5954,60.5331 2374.4794,60.5331 C2420.8354,60.5331 2450.9214,98.5931 2450.9214,141.5741 C2450.9214,145.5671 2450.6184,149.5591 2450.0024,153.5401 L2321.3804,153.5401 C2326.5954,181.1711 2348.3944,196.8251 2376.9444,196.8251" id="Fill-14" fill="#231815" mask="url(#mask-3)"></path>
                    <path d="M2462.0083,141.262 C2462.0083,95.834 2496.3893,60.533 2542.7463,60.533 C2573.1363,60.533 2598.9163,76.492 2610.5893,100.746 L2588.1743,113.642 C2580.5033,97.37 2563.3133,86.627 2542.7463,86.627 C2512.0443,86.627 2488.7193,110.266 2488.7193,141.262 C2488.7193,171.964 2512.0443,195.603 2542.7463,195.603 C2563.6153,195.603 2580.5033,184.86 2589.0933,168.892 L2611.8123,182.091 C2598.9163,206.042 2572.8323,222 2542.7463,222 C2496.3893,222 2462.0083,186.7 2462.0083,141.262" id="Fill-15" fill="#231815" mask="url(#mask-3)"></path>
                    <path d="M2670.1753,90.306 L2670.1753,173.5 C2670.1753,196.826 2683.6773,195.289 2711.0043,194.067 L2711.0043,218.008 C2664.9503,224.153 2643.4653,211.873 2643.4653,173.5 L2643.4653,90.306 L2613.0753,90.306 L2613.0753,64.526 L2643.4653,64.526 L2643.4653,29.528 L2670.1753,21.543 L2670.1753,64.526 L2711.0043,64.526 L2711.0043,90.306 L2670.1753,90.306 Z" id="Fill-16" fill="#231815" mask="url(#mask-3)"></path>
                    <path d="M2807.4175,61.7562 L2807.4175,89.6902 C2784.3965,88.7702 2759.5245,100.4432 2759.5245,136.6632 L2759.5245,218.0082 L2732.8235,218.0082 L2732.8235,64.5262 L2759.5245,64.5262 L2759.5245,90.3062 C2769.3475,68.8202 2788.0745,61.7562 2807.4175,61.7562" id="Fill-17" fill="#231815" mask="url(#mask-3)"></path>
                    <path d="M2822.79,218.008 L2849.49,218.008 L2849.49,64.526 L2822.79,64.526 L2822.79,218.008 Z M2818.181,18.784 C2818.181,8.961 2826.165,0.674 2836.292,0.674 C2846.115,0.674 2854.098,8.961 2854.098,18.784 C2854.098,28.608 2846.115,36.592 2836.292,36.592 C2826.165,36.592 2818.181,28.608 2818.181,18.784 L2818.181,18.784 Z" id="Fill-18" fill="#231815" mask="url(#mask-3)"></path>
                    <path d="M2870.9858,141.262 C2870.9858,95.834 2905.3668,60.533 2951.7238,60.533 C2982.1128,60.533 3007.8938,76.492 3019.5668,100.746 L2997.1508,113.642 C2989.4808,97.37 2972.2908,86.627 2951.7238,86.627 C2921.0208,86.627 2897.6958,110.266 2897.6958,141.262 C2897.6958,171.964 2921.0208,195.603 2951.7238,195.603 C2972.5928,195.603 2989.4808,184.86 2998.0708,168.892 L3020.7898,182.091 C3007.8938,206.042 2981.8098,222 2951.7238,222 C2905.3668,222 2870.9858,186.7 2870.9858,141.262" id="Fill-19" fill="#231815" mask="url(#mask-3)"></path>
                    <polygon id="Fill-20" fill="#231815" mask="url(#mask-3)" points="3226.1782 44.1517 3167.3802 44.1517 3167.3802 218.0077 3141.2352 218.0077 3141.2352 44.1517 3082.7202 44.1517 3082.7202 19.1587 3226.1782 19.1587"></polygon>
                    <path d="M3367.7856,141.262 C3367.7856,110.266 3344.1466,86.627 3313.4546,86.627 C3283.0656,86.627 3259.4276,110.266 3259.4276,141.262 C3259.4276,172.268 3283.0656,195.906 3313.4546,195.906 C3344.1466,195.906 3367.7856,172.268 3367.7856,141.262 M3232.7166,141.262 C3232.7166,95.834 3268.6346,60.533 3313.4546,60.533 C3358.2756,60.533 3394.4966,95.834 3394.4966,141.262 C3394.4966,186.7 3358.2756,222 3313.4546,222 C3268.6346,222 3232.7166,186.7 3232.7166,141.262" id="Fill-21" fill="#231815" mask="url(#mask-3)"></path>
                    <path d="M3541.8853,141.262 C3541.8853,110.266 3518.2463,86.627 3487.5543,86.627 C3457.1643,86.627 3433.5273,110.266 3433.5273,141.262 C3433.5273,172.268 3457.1643,195.906 3487.5543,195.906 C3518.2463,195.906 3541.8853,172.268 3541.8853,141.262 M3406.8163,141.262 C3406.8163,95.834 3442.7333,60.533 3487.5543,60.533 C3532.3753,60.533 3568.5963,95.834 3568.5963,141.262 C3568.5963,186.7 3532.3753,222 3487.5543,222 C3442.7333,222 3406.8163,186.7 3406.8163,141.262" id="Fill-22" fill="#231815" mask="url(#mask-3)"></path>
                    <path d="M3628.7983,90.306 L3628.7983,173.5 C3628.7983,196.826 3642.3003,195.289 3669.6273,194.067 L3669.6273,218.008 C3623.5833,224.153 3602.0873,211.873 3602.0873,173.5 L3602.0873,90.306 L3571.6983,90.306 L3571.6983,64.526 L3602.0873,64.526 L3602.0873,29.528 L3628.7983,21.543 L3628.7983,64.526 L3669.6273,64.526 L3669.6273,90.306 L3628.7983,90.306 Z" id="Fill-23" fill="#231815" mask="url(#mask-3)"></path>
                    <path d="M3826.5161,123.7679 L3826.5161,218.0079 L3799.8051,218.0079 L3799.8051,125.3039 C3799.8051,100.1289 3785.3831,86.0109 3761.7451,86.0109 C3737.1871,86.0109 3717.2271,100.4429 3717.2271,136.6639 L3717.2271,218.0079 L3690.5271,218.0079 L3690.5271,3.1299 L3717.2271,3.1299 L3717.2271,86.6269 C3728.5861,68.5169 3745.4741,60.5339 3766.9601,60.5339 C3802.8771,60.5339 3826.5161,84.4749 3826.5161,123.7679" id="Fill-24" fill="#231815" mask="url(#mask-3)"></path>
                    <path d="M3988.6392,141.262 C3988.6392,109.952 3965.0002,86.315 3934.2982,86.315 C3903.2922,86.315 3879.6542,109.952 3879.6542,141.262 C3879.6542,172.58 3903.2922,196.219 3934.2982,196.219 C3965.0002,196.219 3988.6392,172.58 3988.6392,141.262 M4015.3402,141.262 C4015.3402,186.7 3980.3422,222 3937.6732,222 C3911.5792,222 3891.9332,210.337 3879.6542,191.611 L3879.6542,218.008 L3852.9532,218.008 L3852.9532,3.13 L3879.6542,3.13 L3879.6542,90.923 C3891.9332,72.196 3911.5792,60.533 3937.6732,60.533 C3980.3422,60.533 4015.3402,95.834 4015.3402,141.262" id="Fill-25" fill="#231815" mask="url(#mask-3)"></path>
                    <path d="M4111.1665,61.7562 L4111.1665,89.6902 C4088.1455,88.7702 4063.2735,100.4432 4063.2735,136.6632 L4063.2735,218.0082 L4036.5725,218.0082 L4036.5725,64.5262 L4063.2735,64.5262 L4063.2735,90.3062 C4073.0975,68.8202 4091.8235,61.7562 4111.1665,61.7562" id="Fill-26" fill="#231815" mask="url(#mask-3)"></path>
                    <path d="M4259.1421,64.5257 L4259.1421,218.0077 L4232.4311,218.0077 L4232.4311,195.9057 C4221.0721,214.0157 4204.1941,222.0007 4182.6991,222.0007 C4146.7811,222.0007 4123.1531,198.0587 4123.1531,158.7657 L4123.1531,64.5257 L4149.8531,64.5257 L4149.8531,157.2297 C4149.8531,182.4037 4164.2851,196.5227 4187.9231,196.5227 C4212.4811,196.5227 4232.4311,182.0907 4232.4311,145.8707 L4232.4311,64.5257 L4259.1421,64.5257 Z" id="Fill-27" fill="#231815" mask="url(#mask-3)"></path>
                    <path d="M4397.6265,175.9563 C4397.6265,204.5063 4373.0685,222.0003 4340.2235,222.0003 C4309.5215,222.0003 4288.0355,207.2653 4279.1315,186.0823 L4302.1535,172.8843 C4307.0645,187.6183 4321.1935,196.8253 4340.2235,196.8253 C4356.4945,196.8253 4370.6125,190.9943 4370.6125,175.9563 C4370.6125,143.1103 4284.6595,161.8383 4284.6595,106.2733 C4284.6595,79.2603 4307.9845,60.5333 4338.9905,60.5333 C4364.1655,60.5333 4384.4285,72.4993 4394.2515,92.4593 L4371.8355,105.0413 C4366.0045,91.2263 4352.5025,85.3943 4338.9905,85.3943 C4325.1755,85.3943 4311.6735,92.1453 4311.6735,105.9603 C4311.6735,138.8063 4397.6265,119.4733 4397.6265,175.9563" id="Fill-28" fill="#231815" mask="url(#mask-3)"></path>
                    <path d="M4552.9888,123.7679 L4552.9888,218.0079 L4526.2788,218.0079 L4526.2788,125.3039 C4526.2788,100.1289 4511.8568,86.0109 4488.2178,86.0109 C4463.6608,86.0109 4443.7008,100.4429 4443.7008,136.6639 L4443.7008,218.0079 L4417.0008,218.0079 L4417.0008,3.1299 L4443.7008,3.1299 L4443.7008,86.6269 C4455.0598,68.5169 4471.9478,60.5339 4493.4328,60.5339 C4529.3508,60.5339 4552.9888,84.4749 4552.9888,123.7679" id="Fill-29" fill="#231815" mask="url(#mask-3)"></path>
                    <path d="M531.6245,119.6692 C531.6245,99.1202 550.6185,85.3172 568.3575,85.3172 C589.9145,85.3172 603.3065,100.5332 603.3065,125.0252 L603.3065,218.0102 L627.7225,218.0102 L627.7225,122.0492 C627.7225,104.2912 637.5295,85.3172 665.0505,85.3172 C686.4615,85.3172 700.2965,100.9042 700.2965,125.0252 L700.2965,218.0102 L724.7115,218.0102 L724.7115,125.0252 C724.7115,86.3882 702.9905,62.3882 668.0255,62.3882 C647.4365,62.3882 629.6255,71.2432 618.5095,86.8402 C611.2145,74.9372 597.6355,62.3882 572.8205,62.3882 C556.0515,62.3882 541.6885,68.3552 531.6245,79.3472 L531.6245,64.4722 L507.2085,64.4722 L507.2085,218.0102 L531.6245,218.0102 L531.6245,119.6692 Z" id="Fill-30" fill="#231815" mask="url(#mask-3)"></path>
                    <path d="M129.2563,124.8655 C135.1203,101.0755 155.6783,84.7205 180.2543,84.7205 C204.5893,84.7205 223.2833,100.7295 227.5803,124.8655 L129.2563,124.8655 Z M252.4133,138.9915 C252.2673,115.7695 244.9823,96.1175 231.3473,82.1565 C218.5223,69.0245 200.5873,61.7925 180.8483,61.7925 C136.1083,61.7925 103.6343,95.1415 103.6343,141.0915 C103.6343,187.6055 135.1413,220.0925 180.2543,220.0925 C210.1503,220.0925 233.4413,207.2075 247.6063,182.8285 L248.8253,180.7295 L227.8983,167.2765 L226.5603,169.5585 C215.5213,188.3915 200.8073,197.1625 180.2543,197.1625 C151.6313,197.1625 129.6333,175.7325 128.1303,146.9015 L252.4133,146.9015 L252.4133,138.9915 Z" id="Fill-31" fill="#231815" mask="url(#mask-3)"></path>
                    <polygon id="Fill-32" fill="#231815" mask="url(#mask-3)" points="24.416 87.3997 94.332 87.3997 94.332 64.4697 0 64.4697 0 218.3057 24.416 218.3057"></polygon>
                    <path d="M771.1582,124.8655 C777.0222,101.0755 797.5802,84.7205 822.1552,84.7205 C846.4902,84.7205 865.1822,100.7295 869.4792,124.8655 L771.1582,124.8655 Z M822.1552,220.0925 C852.0512,220.0925 875.3422,207.2075 889.5062,182.8285 L890.7262,180.7295 L869.7982,167.2765 L868.4612,169.5585 C857.4222,188.3915 842.7072,197.1625 822.1552,197.1625 C793.5312,197.1625 771.5332,175.7325 770.0312,146.9015 L894.3122,146.9015 L894.3122,138.9915 C894.1662,115.7695 886.8812,96.1175 873.2482,82.1565 C860.4222,69.0245 842.4882,61.7925 822.7502,61.7925 C778.0082,61.7925 745.5352,95.1415 745.5352,141.0915 C745.5352,187.6055 777.0422,220.0925 822.1552,220.0925 L822.1552,220.0925 Z" id="Fill-33" fill="#231815" mask="url(#mask-3)"></path>
                    <polygon id="Fill-34" fill="#231815" mask="url(#mask-3)" points="451.115 218.008 475.531 218.008 475.531 19.125 451.115 19.125"></polygon>
                    <path d="M294.4814,141.6849 C294.4814,110.3979 316.9234,86.8029 346.6854,86.8029 C377.5544,86.8029 398.2954,108.8589 398.2954,141.6849 C398.2954,174.3329 377.5544,196.2699 346.6854,196.2699 C316.9234,196.2699 294.4814,172.8029 294.4814,141.6849 M347.8754,220.6859 C365.7044,220.6859 382.6694,214.7549 395.3204,204.2549 L395.3204,218.3059 L419.4384,218.3059 L419.4384,64.7679 L395.3204,64.7679 L395.3204,78.8899 C382.4444,68.3449 365.4714,62.3879 347.8754,62.3879 C326.0474,62.3879 306.1694,70.5079 291.9024,85.2519 C277.8204,99.8059 270.0654,119.8469 270.0654,141.6849 C270.0654,163.5049 277.8224,183.4969 291.9084,197.9759 C306.1554,212.6209 326.0304,220.6859 347.8754,220.6859" id="Fill-35" fill="#231815" mask="url(#mask-3)"></path>
                </g>
            </g>
        </g>
    </g>
</svg>