<?xml version="1.0" encoding="UTF-8"?>
<svg width="262px" height="24px" viewBox="0 0 262 24" version="1.1" xmlns="http://www.w3.org/2000/svg" xmlns:xlink="http://www.w3.org/1999/xlink">
    <title>Fill 1</title>
    <g id="页面-1" stroke="none" stroke-width="1" fill="none" fill-rule="evenodd">
        <g id="web_narzo30A_H5" transform="translate(-49.000000, -75.000000)" fill="#FEFEFE">
            <g id="01">
                <g id="TXT" transform="translate(49.000000, 75.000000)">
                    <g id="编组">
                        <path d="M35.3265954,14.4256171 C35.3265954,10.7431621 37.9968366,7.96573154 41.5375679,7.96573154 C45.2103207,7.96573154 47.6769932,10.5619887 47.6769932,14.4256171 C47.6769932,18.2690215 45.2103207,20.8509533 41.5375679,20.8509533 C37.9968366,20.8509533 35.3265954,18.0886907 35.3265954,14.4256171 L35.3265954,14.4256171 Z M41.6789587,23.7244479 C43.7998201,23.7244479 45.8184713,23.0267196 47.3235163,21.790527 L47.3235163,23.4438398 L50.1930674,23.4438398 L50.1930674,5.37200239 L47.3235163,5.37200239 L47.3235163,7.03458446 C45.792067,5.79333591 43.772564,5.09223693 41.6789587,5.09223693 C39.0819681,5.09223693 36.7175058,6.04782135 35.0199649,7.78371546 C33.3445695,9.49601489 32.4221226,11.8554826 32.4221226,14.4256171 C32.4221226,16.9940662 33.3445695,19.3467926 35.0208166,21.051508 C36.7158022,22.7747621 39.0802646,23.7244479 41.6789587,23.7244479 L41.6789587,23.7244479 Z M53.9612164,23.4092904 L56.866541,23.4092904 L56.866541,0 L53.9612164,0 L53.9612164,23.4092904 Z M92.0379187,12.4461922 C92.7355032,9.64600962 95.180882,7.72051543 98.1049451,7.72051543 C101.000049,7.72051543 103.223972,9.60471894 103.735023,12.4461922 L92.0379187,12.4461922 Z M98.1049451,23.6545065 C101.661008,23.6545065 104.432608,22.1377058 106.117372,19.2684246 L106.263022,19.0215231 L103.7725,17.4381518 L103.614074,17.7069625 C102.300673,19.9231769 100.550324,20.955444 98.1049451,20.955444 C94.6996423,20.955444 92.0822098,18.4333415 91.9033419,15.0399214 L106.689749,15.0399214 L106.689749,14.1087743 C106.671862,11.3751624 105.805631,9.06204136 104.183044,7.41884063 C102.657557,5.87338928 100.52392,5.02229557 98.1756405,5.02229557 C92.8530449,5.02229557 88.988648,8.94743864 88.988648,14.3556757 C88.988648,19.8304835 92.7372067,23.6545065 98.1049451,23.6545065 L98.1049451,23.6545065 Z M3.19682259,8.0356729 L11.5141767,8.0356729 L11.5141767,5.33745304 L0.291497976,5.33745304 L0.291497976,23.4438398 L3.19682259,23.4438398 L3.19682259,8.0356729 Z M15.6698726,12.4461922 C16.3674572,9.64600962 18.8128359,7.72051543 21.7368991,7.72051543 C24.6320027,7.72051543 26.855926,9.60471894 27.366977,12.4461922 L15.6698726,12.4461922 Z M30.3217032,14.1087743 C30.3046682,11.3751624 29.4375851,9.06204136 27.8158501,7.41884063 C26.2895112,5.87338928 24.1558736,5.02229557 21.8075945,5.02229557 C16.4841471,5.02229557 12.6214537,8.94743864 12.6214537,14.3556757 C12.6214537,19.8304835 16.3700124,23.6545065 21.7368991,23.6545065 C25.2938137,23.6545065 28.0645615,22.1377058 29.7501779,19.2684246 L29.8949757,19.0215231 L27.4053058,17.4381518 L27.2460283,17.7069625 C25.9326273,19.9231769 24.1822779,20.955444 21.7368991,20.955444 C18.3315963,20.955444 15.7141637,18.4333415 15.5352959,15.0399214 L30.3217032,15.0399214 L30.3217032,14.1087743 Z M63.5400145,11.8344159 C63.5400145,9.41596152 65.7997115,7.7904568 67.9103519,7.7904568 C70.4749759,7.7904568 72.0677513,9.58196693 72.0677513,12.4647309 L72.0677513,23.4092904 L74.9730759,23.4092904 L74.9730759,12.1141814 C74.9730759,10.0243671 76.1399756,7.7904568 79.4141086,7.7904568 C81.9608458,7.7904568 83.6072816,9.62578561 83.6072816,12.4647309 L83.6072816,23.4092904 L86.5117545,23.4092904 L86.5117545,12.4647309 C86.5117545,7.91685685 83.9275402,5.09223693 79.7675855,5.09223693 C77.317948,5.09223693 75.1996418,6.13461606 73.8768716,7.96994488 C73.0089368,6.56943225 71.393164,5.09223693 68.4409931,5.09223693 C66.4461909,5.09223693 64.7375773,5.79417858 63.5400145,7.08851515 L63.5400145,5.33745304 L60.6346899,5.33745304 L60.6346899,23.4092904 L63.5400145,23.4092904 L63.5400145,11.8344159 Z M255.65173,17.0395702 L252.768551,8.91710263 L249.88452,17.0395702 L255.65173,17.0395702 Z M256.639762,19.8153155 L248.89734,19.8153155 L247.623972,23.4396264 L244.376243,23.4396264 L250.975614,5.44784242 L254.560636,5.44784242 L261.133603,23.4396264 L257.912279,23.4396264 L256.639762,19.8153155 Z M239.033205,14.4433131 C239.033205,10.3049752 237.579265,7.99185422 234.877509,7.99185422 C232.200454,7.99185422 230.72011,10.3049752 230.72011,14.4433131 C230.72011,18.5816509 232.200454,20.894772 234.877509,20.894772 C237.579265,20.894772 239.033205,18.5816509 239.033205,14.4433131 L239.033205,14.4433131 Z M227.732165,14.4433131 C227.732165,8.89182262 230.304455,5.11330361 234.877509,5.11330361 C239.44886,5.11330361 242.020298,8.89182262 242.020298,14.4433131 C242.020298,19.9956462 239.44886,23.7733226 234.877509,23.7733226 C230.304455,23.7733226 227.732165,19.9956462 227.732165,14.4433131 L227.732165,14.4433131 Z M225.784209,17.9909413 C225.784209,21.7686177 222.771564,23.7733226 219.41907,23.7733226 C216.74457,23.7733226 214.327299,22.5657807 213.313715,20.0470489 L215.861304,18.5816509 C216.38002,20.0984516 217.601432,20.894772 219.41907,20.894772 C221.471791,20.894772 222.796265,19.7900355 222.796265,17.9909413 C222.796265,16.1910045 221.471791,15.111548 219.41907,15.111548 L218.743631,15.111548 L217.549475,13.3385766 L221.471791,8.22358765 L213.859687,8.22358765 L213.859687,5.44784242 L225.032113,5.44784242 L225.032113,7.96657421 L221.342325,12.798427 C223.836254,13.3899793 225.784209,15.1890734 225.784209,17.9909413 L225.784209,17.9909413 Z M185.736554,23.6140585 L171.315548,23.6140585 L171.314696,21.6236789 L171.8513,20.8779186 L171.850448,20.8779186 L181.067252,8.07106492 L172.117898,8.07106492 L172.117898,5.33829571 L172.11875,5.33829571 L172.11875,5.34166637 L185.393298,5.34166637 L185.393298,7.06660581 L185.390743,7.06913381 L185.390743,7.06997648 L184.856695,7.81152347 L184.856695,7.81236614 L184.854991,7.81489414 L184.854991,7.81573681 L184.134409,8.81682525 L184.134409,8.81682525 L175.510425,20.7987079 L185.736554,20.7987079 L185.736554,23.6140585 Z M169.501317,5.31891436 C169.500465,5.3205997 169.500465,5.32144237 169.499614,5.3231277 L169.500465,5.3231277 L169.500465,8.0230329 C166.793599,8.0230329 163.870388,9.31399881 163.870388,13.5264913 L163.870388,23.6207998 L163.870388,23.6207998 L161.032351,23.6207998 L161.032351,5.33829571 L163.870388,5.33745304 L163.870388,7.38007795 C164.891638,6.10259471 166.83789,5.31891436 169.501317,5.31891436 L169.501317,5.31891436 Z M195.740376,21.1947614 C191.980745,21.1947614 188.932326,18.1780134 188.932326,14.4576384 C188.932326,10.7372634 191.980745,7.72051543 195.740376,7.72051543 C199.500859,7.72051543 202.548427,10.7372634 202.548427,14.4576384 C202.548427,18.1780134 199.500859,21.1947614 195.740376,21.1947614 L195.740376,21.1947614 Z M195.740376,4.91611952 C190.416077,4.91611952 186.098548,9.18844142 186.098548,14.4584811 C186.098548,19.7276781 190.416077,24 195.740376,24 C201.065527,24 205.382204,19.7276781 205.382204,14.4584811 C205.382204,9.18844142 201.065527,4.91611952 195.740376,4.91611952 L195.740376,4.91611952 Z M147.934967,7.89157684 C144.26988,7.89157684 141.298971,10.8307995 141.298971,14.4576384 C141.298971,18.0836347 144.26988,21.0237 147.934967,21.0237 C151.598351,21.0237 154.56926,18.0836347 154.56926,14.4576384 C154.56926,10.8307995 151.598351,7.89157684 147.934967,7.89157684 L147.934967,7.89157684 Z M154.574371,23.6191145 L154.574371,21.1366174 C152.865757,22.8008848 150.521737,23.8297813 147.934967,23.8297813 C142.704361,23.8297813 138.465193,19.6341421 138.465193,14.4584811 C138.465193,9.28197746 142.704361,5.08633826 147.934967,5.08633826 C150.521737,5.08633826 152.865757,6.11439205 154.574371,7.77865946 L154.574371,5.33661037 L157.404741,5.33661037 L157.404741,23.6191145 L154.574371,23.6191145 Z M136.357108,23.6191145 L133.52759,23.6191145 L133.52759,13.4683473 L133.519072,13.4683473 L133.519072,13.464134 C133.519072,10.3681753 131.006405,7.85871283 127.87707,7.85871283 C124.748586,7.85871283 122.235919,10.3681753 122.235919,13.464134 C122.235919,13.4658193 122.235919,13.466662 122.235919,13.4683473 L122.218032,13.4683473 L122.218032,23.6191145 L119.388513,23.6191145 L119.388513,5.33661037 L122.218032,5.33661037 L122.218032,7.47529932 C123.582538,5.97787999 125.54327,5.06864225 127.871107,5.06864225 C132.556593,5.06864225 136.355405,8.82609459 136.356257,13.4624486 L136.357108,13.4624486 L136.357108,23.6191145 Z" id="Fill-1"></path>
                    </g>
                </g>
            </g>
        </g>
    </g>
</svg>