<?xml version="1.0" encoding="utf-8"?>
<!-- Generator: Adobe Illustrator 25.2.0, SVG Export Plug-In . SVG Version: 6.00 Build 0)  -->
<svg version="1.1" id="图层_1" xmlns="http://www.w3.org/2000/svg" xmlns:xlink="http://www.w3.org/1999/xlink" x="0px" y="0px"
	 viewBox="0 0 182.9 19.9" style="enable-background:new 0 0 182.9 19.9;" xml:space="preserve">
<style type="text/css">
	.st0{fill:#231815;}
</style>
<g>
	<g>
		<polygon class="st0" points="103.6,16.3 100.5,5.9 100.4,5.7 98.3,5.7 95.2,16.3 92.2,5.7 89.8,5.7 93.9,19.8 96.3,19.8 99.4,9.5 
			102.4,19.8 104.9,19.8 108.9,5.7 106.5,5.7 		"/>
		<path class="st0" d="M122.2,8c-1.1-1.7-2.9-2.8-5.3-2.8c-3.9,0-7.1,3.2-7.1,7.3c0,4.1,3.2,7.3,7.1,7.3c2.4,0,4.2-1.1,5.3-2.8v2.4
			h2.4v-14h-2.4V8z M117.2,17.6c-2.8,0-4.9-2.2-4.9-5c0-2.8,2.2-5,4.9-5c2.8,0,5,2.2,5,5C122.2,15.4,120,17.6,117.2,17.6z"/>
		<path class="st0" d="M131.7,1.7l-2.4,0.7v3.2h-2.8v2.3h2.8v7.6c0,3.5,2,4.6,6.1,4.1v-2.2c-2.5,0.1-3.7,0.3-3.7-1.9V7.9h3.7V5.6
			h-3.7V1.7z"/>
		<path class="st0" d="M143.7,17.5c-2.8,0-4.9-2.2-4.9-4.9c0-2.8,2.1-5,4.9-5c1.9,0,3.4,1,4.1,2.5l2-1.2c-1.1-2.2-3.4-3.7-6.2-3.7
			c-4.2,0-7.3,3.2-7.3,7.3c0,4.1,3.1,7.3,7.3,7.3c2.7,0,5.1-1.5,6.3-3.6l-2.1-1.2C147.2,16.5,145.6,17.5,143.7,17.5z"/>
		<path class="st0" d="M158.9,5.2c-2,0-3.5,0.7-4.5,2.4V0H152v19.6h2.4v-7.4c0-3.3,1.8-4.6,4.1-4.6c2.2,0,3.5,1.3,3.5,3.6v8.4h2.4
			V11C164.4,7.4,162.2,5.2,158.9,5.2z"/>
		<path class="st0" d="M60.8,5.4c-1.9,0-3.5,0.8-4.5,2.2c-0.7-1.1-1.9-2.2-4.2-2.2c-1.5,0-2.8,0.5-3.7,1.5V5.6h-2.2v14h2.2v-8.9
			c0-1.9,1.7-3.1,3.3-3.1c2,0,3.2,1.4,3.2,3.6v8.5h2.2v-8.7c0-1.6,0.9-3.3,3.4-3.3c1.9,0,3.2,1.4,3.2,3.6v8.5h2.2v-8.5
			C65.9,7.5,64,5.4,60.8,5.4z"/>
		<path class="st0" d="M16.5,5.3c-4.1,0-7,3-7,7.2c0,4.2,2.9,7.2,7,7.2c2.7,0,4.8-1.2,6.1-3.4l0.1-0.2l-1.9-1.2l-0.1,0.2
			c-1,1.7-2.3,2.5-4.2,2.5c-2.6,0-4.6-1.9-4.7-4.6H23v-0.7c0-2.1-0.7-3.9-1.9-5.2C19.9,6,18.3,5.3,16.5,5.3z M11.8,11
			c0.5-2.2,2.4-3.7,4.6-3.7c2.2,0,3.9,1.5,4.3,3.7H11.8z"/>
		<polygon class="st0" points="0,19.5 2.2,19.5 2.2,7.6 8.6,7.6 8.6,5.6 0,5.6 		"/>
		<path class="st0" d="M74.9,5.3c-4.1,0-7,3-7,7.2c0,4.2,2.9,7.2,7,7.2c2.7,0,4.8-1.2,6.1-3.4l0.1-0.2l-1.9-1.2L79,15.1
			c-1,1.7-2.3,2.5-4.2,2.5c-2.6,0-4.6-1.9-4.7-4.6h11.3v-0.7c0-2.1-0.7-3.9-1.9-5.2C78.3,6,76.7,5.3,74.9,5.3z M70.2,11
			c0.5-2.2,2.4-3.7,4.6-3.7c2.2,0,3.9,1.5,4.3,3.7H70.2z"/>
		<rect x="41" y="1.4" class="st0" width="2.2" height="18.1"/>
		<path class="st0" d="M36,6.9c-1.2-1-2.7-1.5-4.3-1.5c-2,0-3.8,0.7-5.1,2.1c-1.3,1.3-2,3.1-2,5.1c0,2,0.7,3.8,2,5.1
			c1.3,1.3,3.1,2.1,5.1,2.1c1.6,0,3.2-0.5,4.3-1.5v1.3h2.2v-14H36V6.9z M31.5,17.5c-2.7,0-4.8-2.1-4.8-5c0-2.8,2-5,4.8-5
			c2.8,0,4.7,2,4.7,5C36.2,15.5,34.4,17.5,31.5,17.5z"/>
	</g>
	<path class="st0" d="M173.2,5.7c0.8-1.6,2.1-2.4,3.8-2.4c2.3,0,3.3,1.7,3.3,3.3c0,1.7-1.3,3.2-2.6,4.5l-6.4,6.5v1.9h11.6v-2.2h-8.4
		l0.1-0.1l4.7-4.6c1.5-1.5,3.2-3.5,3.2-6c0-2.7-1.9-5.5-5.6-5.5c-2.5,0-4.5,1.3-5.6,3.5L173.2,5.7z"/>
</g>
</svg>
