<?xml version="1.0" encoding="UTF-8"?>
<svg width="329px" height="30px" viewBox="0 0 329 30" version="1.1" xmlns="http://www.w3.org/2000/svg" xmlns:xlink="http://www.w3.org/1999/xlink">
    <title>KV/型号字_黑字</title>
    <g id="页面-1" stroke="none" stroke-width="1" fill="none" fill-rule="evenodd">
        <g id="2560" transform="translate(-1649.000000, -418.000000)" fill="#000000">
            <g id="01_kv" transform="translate(0.000000, 93.000000)">
                <g id="文案" transform="translate(580.000000, 322.000000)">
                    <g id="KV/型号字_黑字" transform="translate(1069.000000, 3.000000)">
                        <path d="M177.550553,7.75125 C181.156393,7.75125 183.872836,9.32625 185.570476,11.8548214 L185.570476,11.8548214 L185.570476,8.28910714 L189.261856,8.28910714 L189.261856,29.0180357 L185.570476,29.0180357 L185.570476,25.4523214 C183.872836,27.9819643 181.156393,29.5569643 177.550553,29.5569643 C171.652679,29.5569643 166.815283,24.7901786 166.815283,18.6530357 C166.815283,12.5191071 171.652679,7.75125 177.550553,7.75125 Z M218.336244,7.75221429 C222.536477,7.75221429 226.101741,9.90685714 227.713841,13.1822143 L227.713841,13.1822143 L224.615757,14.9222143 C223.555281,12.7257857 221.178804,11.2750714 218.336244,11.2750714 C214.093241,11.2750714 210.867944,14.4668571 210.867944,18.6529286 C210.867944,22.8004286 214.093241,25.9922143 218.336244,25.9922143 C221.221574,25.9922143 223.555281,24.5415 224.744067,22.3847143 L224.744067,22.3847143 L227.882727,24.1675714 C226.101741,27.4000714 222.494804,29.5568571 218.336244,29.5568571 C211.928421,29.5568571 207.176564,24.7900714 207.176564,18.6529286 C207.176564,12.519 211.928421,7.75221429 218.336244,7.75221429 Z M140.086116,8.50082143 L144.541873,24.1758214 L149.279473,8.50082143 L152.584826,8.50082143 L152.660496,8.75153571 L157.320233,24.1758214 L161.77599,8.50082143 L165.413633,8.50082143 L159.281073,29.3668929 L155.560083,29.3668929 L150.93215,14.13975 L146.304216,29.3668929 L142.583226,29.3668929 L136.44957,8.50082143 L140.086116,8.50082143 Z M48.0847757,7.95685714 C50.5171823,7.95685714 52.8629523,8.7615 54.6428423,10.1854286 L54.6428423,10.1854286 L54.6428423,8.27828571 L57.976709,8.27828571 L57.976709,29.0125714 L54.6428423,29.0125714 L54.6428423,27.1150714 C52.8947557,28.5336429 50.5489857,29.334 48.0847757,29.334 C45.0656523,29.334 42.3185023,28.2454286 40.348889,26.2675714 C38.4023057,24.3122143 37.3297657,21.6122143 37.3297657,18.6657857 C37.3297657,15.7161429 38.4023057,13.0097143 40.3477923,11.0447143 C42.3206957,9.05292857 45.0678457,7.95685714 48.0847757,7.95685714 Z M113.724114,7.8765 C116.452621,7.8765 118.931087,8.85364286 120.704397,10.6268571 C122.588471,12.5115 123.596307,15.1665 123.616047,18.3015 L123.616047,18.3015 L123.616047,19.3697143 L106.437861,19.3697143 C106.645131,23.2632857 109.686187,26.1572143 113.642961,26.1572143 C116.483327,26.1572143 118.517644,24.9732857 120.043107,22.4297143 L120.043107,22.4297143 L120.228444,22.1222143 L123.120354,23.9382857 L122.952564,24.2222143 C120.993917,27.5136429 117.774104,29.2536429 113.642961,29.2536429 C107.407314,29.2536429 103.051354,24.8661429 103.051354,18.5854286 C103.051354,12.3797143 107.540011,7.8765 113.724114,7.8765 Z M24.9979683,7.8765 C27.726475,7.8765 30.2049417,8.85364286 31.9782517,10.6268571 C33.862325,12.5115 34.869065,15.1665 34.8899017,18.3015 L34.8899017,18.3015 L34.8899017,19.3697143 L17.7106183,19.3697143 C17.918985,23.2632857 20.958945,26.1572143 24.9157183,26.1572143 C27.7571817,26.1572143 29.7904017,24.9732857 31.315865,22.4297143 L31.315865,22.4297143 L31.5012017,22.1222143 L34.3942083,23.9382857 L34.2253217,24.2222143 C32.2677717,27.5136429 29.0479583,29.2536429 24.9157183,29.2536429 C18.6800717,29.2536429 14.3252083,24.8661429 14.3252083,18.5854286 C14.3252083,12.3797143 18.8127683,7.8765 24.9979683,7.8765 Z M200.088149,2.48614286 L200.088149,8.289 L205.731596,8.289 L205.731596,11.7722143 L200.088149,11.7722143 L200.088149,23.0072143 C200.088149,26.1561429 201.954676,25.9493571 205.731596,25.7843571 L205.731596,25.7843571 L205.731596,29.0179286 C199.367639,29.8482857 196.396769,28.1886429 196.396769,23.0072143 L196.396769,23.0072143 L196.396769,11.7722143 L192.195439,11.7722143 L192.195439,8.289 L196.396769,8.289 L196.396769,3.564 L200.088149,2.48614286 Z M268.769093,1.72167857 C274.350029,1.72167857 277.270453,5.82096429 277.270453,9.87096429 C277.270453,13.4581071 274.646129,16.48275 272.359579,18.7145357 L272.359579,18.7145357 L265.275113,25.5973929 L265.057973,25.8106071 L277.784789,25.8106071 L277.784789,29.0409643 L260.149293,29.0409643 L260.149293,26.27775 L269.887693,16.5716786 C271.844146,14.6591786 273.843369,12.3748929 273.843369,9.90953571 C273.843369,7.52239286 272.267459,4.95310714 268.808573,4.95310714 C266.231406,4.95310714 264.244246,6.19167857 263.055459,8.53596429 L263.055459,8.53596429 L260.187676,6.88382143 C261.857899,3.60096429 264.980109,1.72167857 268.769093,1.72167857 Z M234.550132,7.76521704e-14 L234.550132,11.2757143 C236.120558,8.82857143 238.454265,7.75178571 241.425135,7.75178571 C246.388648,7.75178571 249.656715,10.9853571 249.656715,16.2910714 L249.656715,16.2910714 L249.656715,29.0185714 L245.965335,29.0185714 L245.965335,16.4989286 C245.965335,13.0992857 243.970498,11.1921429 240.704625,11.1921429 C237.309345,11.1921429 234.550132,13.14 234.550132,18.0332143 L234.550132,18.0332143 L234.550132,29.0185714 L230.859848,29.0185714 L230.859848,7.76521704e-14 L234.550132,7.76521704e-14 Z M13.0393667,8.23789286 L13.0393667,11.3343214 L3.37444333,11.3343214 L3.37444333,29.0128929 L2.78248535e-13,29.0128929 L2.78248535e-13,8.23789286 L13.0393667,8.23789286 Z M65.73091,2.11478571 L65.73091,28.9722857 L62.35537,28.9722857 L62.35537,2.11478571 L65.73091,2.11478571 Z M92.3379077,7.95685714 C97.1709177,7.95685714 100.173591,11.1979286 100.173591,16.4168571 L100.173591,16.4168571 L100.173591,28.9729286 L96.798051,28.9729286 L96.798051,16.4168571 C96.798051,13.1575714 94.8854643,11.0532857 91.9266577,11.0532857 C88.122321,11.0532857 86.766841,13.6161429 86.766841,16.014 L86.766841,16.014 L86.766841,28.9729286 L83.3923977,28.9729286 L83.3923977,16.4168571 C83.3923977,13.1082857 81.5412243,11.0532857 78.5604843,11.0532857 C76.1094343,11.0532857 73.4840143,12.9175714 73.4840143,15.6925714 L73.4840143,15.6925714 L73.4840143,28.9729286 L70.1084743,28.9729286 L70.1084743,8.23864286 L73.4840143,8.23864286 L73.4840143,10.2475714 C74.8745877,8.76257143 76.8595543,7.95685714 79.1779077,7.95685714 C82.608281,7.95685714 84.4846777,9.65185714 85.493611,11.259 C87.030041,9.15257143 89.4920577,7.95685714 92.3379077,7.95685714 Z M323.645086,2.10867857 C326.6017,2.10867857 329.00011,4.45082143 329.00011,7.33939286 L329.00011,7.33939286 L329.00011,23.6808214 C329.00011,26.5693929 326.6017,28.9126071 323.645086,28.9126071 L323.645086,28.9126071 L289.73396,28.9126071 C286.777346,28.9126071 284.378936,26.5693929 284.378936,23.6808214 L284.378936,23.6808214 L284.378936,7.33939286 C284.378936,4.45082143 286.777346,2.10867857 289.73396,2.10867857 L289.73396,2.10867857 Z M323.645086,4.21189286 L289.73396,4.21189286 C287.969423,4.21189286 286.53279,5.61546429 286.53279,7.33939286 L286.53279,7.33939286 L286.53279,23.6808214 C286.53279,25.40475 287.969423,26.8083214 289.73396,26.8083214 L289.73396,26.8083214 L323.645086,26.8083214 C325.409623,26.8083214 326.846256,25.40475 326.846256,23.6808214 L326.846256,23.6808214 L326.846256,7.33939286 C326.846256,5.61546429 325.409623,4.21189286 323.645086,4.21189286 L323.645086,4.21189286 Z M178.016636,11.2333929 C173.774729,11.2333929 170.506663,14.4251786 170.506663,18.6530357 C170.506663,22.8819643 173.774729,26.07375 178.016636,26.07375 C182.302409,26.07375 185.570476,22.8819643 185.570476,18.6530357 C185.570476,14.4251786 182.302409,11.2333929 178.016636,11.2333929 Z M47.9202757,11.2547143 C43.806679,11.2547143 40.704209,14.4400714 40.704209,18.6657857 C40.704209,22.8679286 43.806679,26.0372143 47.9202757,26.0372143 C52.1874057,26.0372143 55.0540923,23.0747143 55.0540923,18.6657857 C55.0540923,14.2322143 52.1874057,11.2547143 47.9202757,11.2547143 Z M315.937713,12.1501071 C318.91955,12.1501071 321.292736,14.4108214 321.292736,17.3636786 C321.292736,20.29725 318.91955,22.57725 315.937713,22.57725 C312.97452,22.57725 310.580496,20.29725 310.580496,17.3636786 C310.580496,14.4108214 312.97452,12.1501071 315.937713,12.1501071 Z M298.295636,8.44296429 C300.9726,8.44296429 303.00253,10.4251071 303.00253,13.0029643 C303.00253,15.5593929 300.9726,17.5608214 298.295636,17.5608214 L298.295636,17.5608214 L295.393856,17.5608214 L295.393856,22.3190357 L293.057956,22.3190357 L293.057956,8.44296429 Z M309.994876,12.2293929 L309.994876,14.5490357 C308.553856,14.4493929 306.869376,15.1040357 306.869376,17.3240357 L306.869376,22.3190357 L304.67714,22.3190357 L304.67714,12.4083214 L306.869376,12.4083214 L306.869376,14.07225 C307.478026,12.7243929 308.715066,12.2293929 309.994876,12.2293929 Z M315.937713,14.2308214 C314.151243,14.2308214 312.771636,15.5593929 312.771636,17.3636786 C312.771636,19.1668929 314.151243,20.4954643 315.937713,20.4954643 C317.723086,20.4954643 319.101596,19.1668929 319.101596,17.3636786 C319.101596,15.5593929 317.723086,14.2308214 315.937713,14.2308214 Z M113.642961,10.9729286 C110.245487,10.9729286 107.404024,13.1811429 106.593587,16.3943571 L106.593587,16.3943571 L120.183481,16.3943571 C119.590184,13.1350714 117.006437,10.9729286 113.642961,10.9729286 Z M24.9157183,10.9729286 C21.5193417,10.9729286 18.6767817,13.1811429 17.866345,16.3943571 L17.866345,16.3943571 L31.457335,16.3943571 C30.8629417,13.1350714 28.279195,10.9729286 24.9157183,10.9729286 Z M298.295636,10.58475 L295.393856,10.58475 L295.393856,15.4211786 L298.295636,15.4211786 C299.675243,15.4211786 300.667726,14.3904643 300.667726,13.0029643 C300.667726,11.5940357 299.675243,10.58475 298.295636,10.58475 L298.295636,10.58475 Z" id="形状结合"></path>
                    </g>
                </g>
            </g>
        </g>
    </g>
</svg>