<?xml version="1.0" encoding="UTF-8"?>
<svg width="258px" height="27px" viewBox="0 0 258 27" version="1.1" xmlns="http://www.w3.org/2000/svg" xmlns:xlink="http://www.w3.org/1999/xlink">
    <!-- Generator: Sketch 59.1 (86144) - https://sketch.com -->
    <title>编组</title>
    <desc>Created with Sketch.</desc>
    <defs>
        <polygon id="path-1" points="0.5673 0.0007 29.6213 0.0007 29.6213 21 0.5673 21"></polygon>
        <polygon id="path-3" points="0.9458 0.0004 20.7028 0.0004 20.7028 21 0.9458 21"></polygon>
        <polygon id="path-5" points="0.0005 0.6106 12.7385 0.6106 12.7385 21 0.0005 21"></polygon>
        <polygon id="path-7" points="0.1084 0.0002 19.8644 0.0002 19.8644 21 0.1084 21"></polygon>
        <polygon id="path-9" points="0.1886 0.0002 19.9456 0.0002 19.9456 21 0.1886 21"></polygon>
        <polygon id="path-11" points="0.216 0.0004 14.162 0.0004 14.162 21 0.216 21"></polygon>
        <polygon id="path-13" points="0.8104 0.6666 24.0544 0.6666 24.0544 10 0.8104 10"></polygon>
    </defs>
    <g id="页面-1" stroke="none" stroke-width="1" fill="none" fill-rule="evenodd">
        <g id="web_cheetah" transform="translate(-1138.000000, -8336.000000)">
            <g id="编组" transform="translate(1138.000000, 8336.000000)">
                <g transform="translate(68.000000, 5.833300)">
                    <mask id="mask-2" fill="white">
                        <use xlink:href="#path-1"></use>
                    </mask>
                    <g id="Clip-2"></g>
                    <path d="M3.8293,7.7297 C3.8293,4.9567 6.3663,3.0957 8.7363,3.0957 C11.6163,3.0957 13.4053,5.1487 13.4053,8.4527 L13.4053,21.0007 L16.6663,21.0007 L16.6663,8.0517 C16.6663,5.6547 17.9753,3.0957 21.6533,3.0957 C24.5133,3.0957 26.3603,5.1977 26.3603,8.4527 L26.3603,21.0007 L29.6213,21.0007 L29.6213,8.4527 C29.6213,3.2397 26.7223,0.0007 22.0513,0.0007 C19.3003,0.0007 16.9213,1.1957 15.4353,3.3017 C14.4623,1.6937 12.6473,0.0007 9.3323,0.0007 C7.0933,0.0007 5.1743,0.8057 3.8293,2.2887 L3.8293,0.2807 L0.5673,0.2807 L0.5673,21.0007 L3.8293,21.0007 L3.8293,7.7297 Z" id="Fill-1" fill="#050101" mask="url(#mask-2)"></path>
                </g>
                <g transform="translate(13.000000, 5.833300)">
                    <mask id="mask-4" fill="white">
                        <use xlink:href="#path-3"></use>
                    </mask>
                    <g id="Clip-4"></g>
                    <path d="M20.7028,10.2414 C20.6848,7.1604 19.7168,4.5534 17.9048,2.7014 C16.2018,0.9604 13.8208,0.0004 11.1988,0.0004 C5.2568,0.0004 0.9458,4.4234 0.9458,10.5194 C0.9458,16.6904 5.1288,21.0004 11.1198,21.0004 C15.0908,21.0004 18.1838,19.2904 20.0648,16.0574 L20.2268,15.7774 L17.4478,13.9934 L17.2698,14.2964 C15.8038,16.7944 13.8488,17.9584 11.1198,17.9584 C7.3188,17.9584 4.3978,15.1154 4.1978,11.2904 L20.7028,11.2904 L20.7028,10.2414 Z M4.3478,8.3674 C5.1258,5.2124 7.8568,3.0414 11.1198,3.0414 C14.3508,3.0414 16.8338,5.1644 17.4058,8.3674 L4.3478,8.3674 Z" id="Fill-3" fill="#050101" mask="url(#mask-4)"></path>
                </g>
                <g transform="translate(0.000000, 5.833300)">
                    <mask id="mask-6" fill="white">
                        <use xlink:href="#path-5"></use>
                    </mask>
                    <g id="Clip-6"></g>
                    <polygon id="Fill-5" fill="#050101" mask="url(#mask-6)" points="3.2975 3.7756 12.7385 3.7756 12.7385 0.6106 0.0005 0.6106 0.0005 21.0006 3.2975 21.0006"></polygon>
                </g>
                <g transform="translate(101.000000, 5.833300)">
                    <mask id="mask-8" fill="white">
                        <use xlink:href="#path-7"></use>
                    </mask>
                    <g id="Clip-8"></g>
                    <path d="M10.2814,21.0002 C14.2524,21.0002 17.3454,19.2912 19.2264,16.0572 L19.3894,15.7772 L16.6104,13.9932 L16.4314,14.2962 C14.9664,16.7942 13.0104,17.9582 10.2814,17.9582 C6.4814,17.9582 3.5594,15.1152 3.3604,11.2902 L19.8644,11.2902 L19.8644,10.2412 C19.8464,7.1602 18.8774,4.5532 17.0674,2.7022 C15.3634,0.9602 12.9834,0.0002 10.3604,0.0002 C4.4194,0.0002 0.1084,4.4232 0.1084,10.5202 C0.1084,16.6902 4.2914,21.0002 10.2814,21.0002 L10.2814,21.0002 Z M3.5094,8.3672 C4.2894,5.2122 7.0184,3.0412 10.2814,3.0412 C13.5134,3.0412 15.9954,5.1652 16.5674,8.3672 L3.5094,8.3672 Z" id="Fill-7" fill="#050101" mask="url(#mask-8)"></path>
                </g>
                <polygon id="Fill-9" fill="#050101" points="60.433 26.8333 63.919 26.8333 63.919 0.0003 60.433 0.0003"></polygon>
                <g transform="translate(37.000000, 5.833300)">
                    <mask id="mask-10" fill="white">
                        <use xlink:href="#path-9"></use>
                    </mask>
                    <g id="Clip-12"></g>
                    <path d="M10.4806,21.0002 C12.8386,21.0002 15.0836,20.2132 16.7556,18.8202 L16.7556,20.6852 L19.9456,20.6852 L19.9456,0.3162 L16.7556,0.3162 L16.7556,2.1892 C15.0536,0.7902 12.8086,0.0002 10.4806,0.0002 C7.5936,0.0002 4.9656,1.0782 3.0776,3.0342 C1.2156,4.9652 0.1886,7.6232 0.1886,10.5202 C0.1886,13.4132 1.2156,16.0662 3.0776,17.9862 C4.9636,19.9302 7.5906,21.0002 10.4806,21.0002 M3.4186,10.5202 C3.4186,6.3692 6.3876,3.2392 10.3246,3.2392 C14.4046,3.2392 17.1486,6.1662 17.1486,10.5202 C17.1486,14.8522 14.4046,17.7612 10.3246,17.7612 C6.3876,17.7612 3.4186,14.6482 3.4186,10.5202" id="Fill-11" fill="#050101" mask="url(#mask-10)"></path>
                </g>
                <path d="M189.8459,10.7973 L185.7549,10.7973 L185.7549,21.6693 L187.5789,21.6693 L187.5789,17.9403 L189.8459,17.9403 C191.9399,17.9403 193.5239,16.3733 193.5239,14.3693 C193.5239,12.3493 191.9399,10.7973 189.8459,10.7973 L189.8459,10.7973 Z M189.8459,16.2643 L187.5789,16.2643 L187.5789,12.4743 L189.8459,12.4743 C190.9229,12.4743 191.6999,13.2653 191.6999,14.3693 C191.6999,15.4563 190.9229,16.2643 189.8459,16.2643 L189.8459,16.2643 Z M198.9879,13.7623 L198.9879,15.5813 C197.8609,15.5023 196.5459,16.0163 196.5459,17.7543 L196.5459,21.6693 L194.8319,21.6693 L194.8319,13.9033 L196.5459,13.9033 L196.5459,15.2083 C197.0209,14.1513 197.9889,13.7623 198.9879,13.7623 L198.9879,13.7623 Z M203.6309,13.7003 C201.3159,13.7003 199.4449,15.4723 199.4449,17.7863 C199.4449,20.0853 201.3159,21.8703 203.6309,21.8703 C205.9619,21.8703 207.8159,20.0853 207.8159,17.7863 C207.8159,15.4723 205.9619,13.7003 203.6309,13.7003 L203.6309,13.7003 Z M203.6309,20.2393 C202.2359,20.2393 201.1589,19.1993 201.1589,17.7863 C201.1589,16.3733 202.2359,15.3313 203.6309,15.3313 C205.0269,15.3313 206.1039,16.3733 206.1039,17.7863 C206.1039,19.1993 205.0269,20.2393 203.6309,20.2393 L203.6309,20.2393 Z M209.6539,5.8333 L183.1569,5.8333 C180.8469,5.8333 178.9729,7.6673 178.9729,9.9333 L178.9729,22.7353 C178.9729,24.9993 180.8469,26.8333 183.1569,26.8333 L209.6539,26.8333 C211.9639,26.8333 213.8379,24.9993 213.8379,22.7353 L213.8379,9.9333 C213.8379,7.6673 211.9639,5.8333 209.6539,5.8333 L209.6539,5.8333 Z M212.1559,22.7353 C212.1559,24.0873 211.0329,25.1853 209.6539,25.1853 L183.1569,25.1853 C181.7779,25.1853 180.6559,24.0873 180.6559,22.7353 L180.6559,9.9333 C180.6559,8.5803 181.7779,7.4813 183.1569,7.4813 L209.6539,7.4813 C211.0329,7.4813 212.1559,8.5803 212.1559,9.9333 L212.1559,22.7353 Z" id="Fill-13" fill="#050101"></path>
                <g transform="translate(159.000000, 5.833300)">
                    <mask id="mask-12" fill="white">
                        <use xlink:href="#path-11"></use>
                    </mask>
                    <g id="Clip-16"></g>
                    <polygon id="Fill-15" fill="#050101" mask="url(#mask-12)" points="0.216 3.0514 9.698 3.0514 2.648 20.6754 2.518 21.0004 5.764 21.0004 14.162 0.0004 13.076 0.0004 0.216 0.0004"></polygon>
                </g>
                <g transform="translate(134.000000, 16.833300)">
                    <mask id="mask-14" fill="white">
                        <use xlink:href="#path-13"></use>
                    </mask>
                    <g id="Clip-18"></g>
                    <polygon id="Fill-17" fill="#050101" mask="url(#mask-14)" points="14.6164 0.6696 14.6134 0.6696 14.6114 0.6666 10.2494 0.6666 10.2524 0.6696 0.8104 10.0006 5.1734 10.0006 12.4324 2.8236 19.6914 9.9966 24.0544 9.9966 14.6144 0.6696"></polygon>
                </g>
                <polygon id="Fill-19" fill="#050101" points="144.2492 15.165 144.2502 15.165 144.2522 15.166 148.6162 15.166 148.6132 15.164 158.0542 5.833 153.6912 5.833 146.4332 13.009 139.1732 5.835 134.8112 5.835 144.2502 15.164"></polygon>
                <path d="M229.0998,13.5586 L225.9748,13.5126 L226.3618,8.3546 L234.5378,8.3546 L235.1088,5.8336 L224.1208,5.8336 L224.1428,5.8566 L223.3248,16.2726 L229.0398,16.2726 C230.5488,16.2726 232.1498,16.8726 232.8828,18.3366 C233.7578,20.0776 233.1398,22.1126 231.5638,23.1356 C229.9578,24.1796 227.8948,24.1856 226.0738,24.0046 C225.9538,23.9946 224.0388,23.7676 223.7048,23.5316 L223.1348,26.0476 C225.5198,26.8826 228.1698,26.8326 228.1698,26.8326 C230.8028,26.7786 233.6218,25.6506 235.0728,23.2106 C236.5238,20.7706 236.0618,17.3916 234.0518,15.4336 C232.7268,14.1416 230.8898,13.5586 229.0998,13.5586" id="Fill-21" fill="#050101"></path>
                <path d="M248.9718,18.8501 L255.2688,18.8501 C254.7398,21.8881 252.2138,24.2031 247.9528,24.2031 C243.0458,24.2031 239.7858,20.7311 239.7858,16.3341 C239.7858,11.9071 243.0738,8.4371 247.8358,8.4371 C250.7018,8.4371 253.1708,9.8711 254.3668,11.9921 C254.3838,12.0221 256.3178,10.0321 256.3178,10.0321 C254.5138,7.5171 251.3988,5.8331 247.8648,5.8331 C241.6058,5.8331 237.0808,10.5191 237.0808,16.3341 C237.0808,22.1201 241.5768,26.8331 247.9208,26.8331 C254.1218,26.8331 257.9998,22.7851 257.9998,17.6351 L257.9998,16.4211 L247.7148,16.4211 L248.9718,18.8501 Z" id="Fill-23" fill="#050101"></path>
            </g>
        </g>
    </g>
</svg>