<svg height="48" viewBox="0 0 48 48" width="48" xmlns="http://www.w3.org/2000/svg"><g fill="none" fill-rule="evenodd"><circle cx="24" cy="25" fill="#fff" r="19"/><path d="m44 24.1216752c0-11.1120544-8.9551399-20.1216752-20-20.1216752s-20 9.0096208-20 20.1216752c0 10.0424448 7.3126143 18.3672891 16.8752637 19.8783248v-14.0605546h-5.0794544v-5.8177702h5.0794544v-4.4340691c0-5.0424448 2.9869216-7.8296548 7.554493-7.8296548 2.1881592 0 4.47757.393322 4.47757.393322v4.9518959h-2.5228519c-2.4834763 0-3.2597385 1.5506508-3.2597385 3.1437465v3.7747595h5.5463367l-.8859514 5.8177702h-4.6603853v14.0605546c9.5626494-1.508206 16.8752637-9.8330504 16.8752637-19.8783248z" fill="#000" fill-rule="nonzero"/></g></svg>