<svg height="48" viewBox="0 0 48 48" width="48" xmlns="http://www.w3.org/2000/svg"><g fill="none" fill-rule="evenodd"><circle cx="24" cy="24" fill="#000" r="20"/><g fill="#fff" fill-rule="nonzero" transform="translate(13 13)"><path d="m21.9338684 6.46478271c-.0535431-1.17089843-.2395172-1.97052001-.5114288-2.67010498-.2761078-.73399352-.7091522-1.39883425-1.2687531-1.94836425-.5493621-.55960086-1.2143707-.99281312-1.9483642-1.26908874-.6997528-.27174378-1.4992066-.45755007-2.670105-.51075745-1.1730804-.05371094-1.5478821-.06646729-4.5352173-.06646729-2.98733523 0-3.36213685.01275635-4.53521729.06613157-1.17089843.0535431-1.97035218.23951722-2.67010498.51142884-.73399352.27610782-1.39883425.70915221-1.94836425 1.26875307-.55960085.54936217-.99281312 1.21420286-1.26908874 1.94819642-.27174378.6997528-.45755007 1.49937438-.51075745 2.67010498-.05371094 1.17324827-.06646729 1.54788206-.06646729 4.53521732 0 2.987503.01275635 3.3623047.06646729 4.5353851.05337522 1.1707306.23934938 1.9703522.51126096 2.670105.27610782.7338256.70915225 1.3988342 1.26875306 1.9481964.54936217.5596008 1.21437074.9926452 1.94836426 1.268753.69958496.2720795 1.49920654.4578858 2.67010498.5114289 1.17324831.0535431 1.5478821.0661316 4.53521725.0661316 2.9873353 0 3.3621369-.0125885 4.5352173-.0661316 1.1708985-.0535431 1.9703522-.2393494 2.670105-.5114289 1.4775543-.5713501 2.6455994-1.7393951 3.2169495-3.2169494.2720794-.6997528.4578857-1.4993744.5114288-2.670105.0533753-1.1732483.0661316-1.5478821.0661316-4.5352173 0-2.98750306-.0127563-3.36213685-.0661316-4.53521729zm-1.9800873 8.98030089c-.0488433 1.0725403-.2281036 1.6549683-.3786621 2.0425263-.3701019.9594116-1.1282654 1.717575-2.087677 2.0876769-.3875579.1505585-.9699859.3298188-2.0425262.3786622-1.1596527.0530395-1.5075989.0641174-4.4449158.0641174-2.93748473 0-3.28526305-.0110779-4.44508363-.0641174-1.07237242-.0488434-1.65480042-.2281037-2.04252623-.3786622-.47769163-.1764068-.90989684-.45755-1.26472475-.8229522-.36540221-.3548279-.64654541-.7868652-.82295223-1.2647247-.15055851-.387558-.32981876-.969986-.37866211-2.0425263-.05287172-1.1598205-.06411746-1.5077667-.06411746-4.4449158 0-2.93731686.01124574-3.28509518.06411746-4.44508355.04901118-1.0725403.2281036-1.6549683.37866211-2.04252628.17640682-.47785946.45771786-.91006467.82295223-1.26489258.35482791-.36540221.78703312-.64654541 1.26489258-.8227844.38755798-.15072634.96998598-.32981876 2.04252628-.37882994 1.15982054-.05287172 1.50776669-.06411746 4.44491575-.06411746h-.0001678c2.937149 0 3.2850952.01124574 4.4450836.06428529 1.0725403.04884335 1.6548004.22810365 2.0425262.37866211.4776917.17640683.9098969.45755003 1.2647247.8227844.3654023.35482791.6465455.78703312.8227845 1.26489258.1507263.38755798.3299866.96998598.3788299 2.04252628.0528717 1.15982054.0641175 1.50776669.0641175 4.44491575 0 2.9373169-.0110779 3.2850952-.0641175 4.4450836z"/><path d="m10.9998322 5.35128782c-3.11959845 0-5.64854438 2.52911381-5.64854438 5.64871218 0 3.1195984 2.52894593 5.6485443 5.64854438 5.6485443 3.1197662 0 5.6487121-2.5289459 5.6487121-5.6485443 0-3.11959837-2.5289459-5.64871218-5.6487121-5.64871218zm0 9.31532288c-2.02490238-.0001678-3.66661079-1.6417084-3.66644291-3.6667785 0-2.02490238 1.64154053-3.66661079 3.66661071-3.66661079 2.0250702.00016788 3.6666107 1.64170841 3.6666107 3.66661079 0 2.0250701-1.6417084 3.6667785-3.6667785 3.6667785z"/><path d="m18.1917267 5.12821959c0 .72895814-.5909882 1.31994629-1.3199463 1.31994629-.729126 0-1.3201141-.59098815-1.3201141-1.31994629 0-.72912597.5909881-1.32011412 1.3201141-1.32011412.7289581 0 1.3199463.59098815 1.3199463 1.32011412z"/></g></g></svg>