<svg height="48" viewBox="0 0 48 48" width="48" xmlns="http://www.w3.org/2000/svg"><g fill="none" fill-rule="evenodd"><circle cx="24" cy="24" fill="#000" r="20"/><path d="m11.1626379.02037012c1.3342426-.02037012 2.6583001-.01018507 3.9823577-.02037012.0814804 1.55831385.6416586 3.14718288 1.7823851 4.24716913 1.1407264 1.13054143 2.7499656 1.64997938 4.3184645 1.82312537v4.1045783c-1.4666483-.0509253-2.9434817-.35647702-4.2777243-.98795059-.5805483-.26481152-1.1203564-.60091843-1.6499794-.94721038-.010185 2.97403687.0101851 5.94807377-.0203701 8.91192557-.0814804 1.4259082-.5499931 2.8416312-1.3749828 4.0129129-1.3342426 1.9555311-3.6462507 3.2286633-6.01936919 3.2694035-1.45646328.0814805-2.91292654-.3157367-4.15550361-1.0490609-2.05738168-1.2120219-3.50365992-3.4323645-3.71754613-5.8156681-.02037013-.5092529-.03055518-1.0185058-.01018505-1.5175736.18333104-1.935161 1.14072647-3.7888415 2.62774493-5.0517887 1.6907196-1.46664833 4.05365304-2.16941733 6.26381059-1.75182995.02037012 1.50738855-.04074022 3.01477715-.04074022 4.52216565-1.00832073-.3259218-2.18978745-.2342563-3.07588749.3768472-.64165865.4175874-1.13054142 1.059246-1.38516786 1.7823851-.21388622.519438-.15277587 1.0898012-.14259082 1.6397943.24444139 1.6703495 1.85368054 3.0758875 3.56477026 2.9231116 1.14072648-.010185 2.23052769-.6722138 2.82126099-1.6397943.1935161-.3361069.4074023-.6823989.4175874-1.0796161.1018506-1.8231254.0611104-3.6360657.0712954-5.459191.0101851-4.10457835-.010185-8.19897161.0203701-12.29336488z" fill="#fff" fill-rule="nonzero" transform="translate(13 11)"/></g></svg>