<svg height="48" viewBox="0 0 48 48" width="48" xmlns="http://www.w3.org/2000/svg"><g fill="none" fill-rule="evenodd"><circle cx="24" cy="24" fill="#000" r="20"/><g fill-rule="nonzero" transform="translate(12 15)"><path d="m24.2675159 2.72292994c-.2866242-1.06687898-1.1305732-1.91082803-2.1974522-2.19745223-1.9267516-.52547771-9.6815287-.52547771-9.6815287-.52547771s-7.75477704.01592357-9.68152863.54140127c-1.06687898.28662421-1.91082803 1.13057325-2.19745223 2.19745223-.50955414 1.9267516-.50955414 5.95541402-.50955414 5.95541402s0 4.02866238.52547771 5.97133758c.2866242 1.066879 1.13057325 1.910828 2.19745223 2.1974522 1.92675159.5254777 9.68152866.5254777 9.68152866.5254777s7.7547771 0 9.6815287-.5254777c1.0668789-.2866242 1.910828-1.1305732 2.1974522-2.1974522.5254777-1.9267516.5254777-5.97133758.5254777-5.97133758s-.0159236-4.02866242-.5414013-5.97133758z" fill="#fff"/><path d="m9.92038217 12.4203822 6.43312103-3.72611468-6.43312103-3.72611465z" fill="#000"/></g></g></svg>