<?xml version="1.0" encoding="utf-8"?>
<!-- Generator: Adobe Illustrator 25.4.1, SVG Export Plug-In . SVG Version: 6.00 Build 0)  -->
<svg version="1.1" id="图层_1" xmlns="http://www.w3.org/2000/svg" xmlns:xlink="http://www.w3.org/1999/xlink" x="0px" y="0px"
	 viewBox="0 0 264 31" style="enable-background:new 0 0 264 31;" xml:space="preserve">
<style type="text/css">
	.st0{fill-rule:evenodd;clip-rule:evenodd;}
</style>
<g id="页面-1">
	<path id="en_realme-Band-2_black" class="st0" d="M172.5,8.3c3.4,0,6.2,1.5,8,4.2l0,0l0.2,0.3v-4h3.5v21.3h-3.5v-4l-0.2,0.4
		c-1.8,2.7-4.6,4.2-8,4.2c-6,0-10.8-4.9-10.8-11.2C161.7,13.2,166.4,8.3,172.5,8.3z M232.5,0.3v29.9H229v-4l-0.2,0.4
		c-1.8,2.7-4.6,4.2-8,4.2c-6,0-10.8-4.9-10.8-11.2c0-6.3,4.7-11.2,10.8-11.2c3.4,0,6.2,1.5,8,4.2l0,0l0.2,0.3V0.3H232.5z M49,8.4
		c2.5,0,4.9,0.8,6.7,2.3l0,0v-2h3.4v21.6h-3.4v-2c-1.8,1.5-4.2,2.3-6.7,2.3c-3.1,0-5.9-1.1-7.9-3.2c-2-2-3.1-4.8-3.1-7.9
		c0-3.1,1.1-5.9,3.1-7.9C43.1,9.6,45.9,8.4,49,8.4z M25.5,8.3c2.8,0,5.3,1,7.1,2.9c1.9,2,2.9,4.7,3,8l0,0v1.1H18.1
		c0.2,4.1,3.3,7.1,7.3,7.1c2.9,0,5-1.2,6.5-3.9l0,0l0.2-0.3l2.9,1.9l-0.2,0.3c-2,3.4-5.3,5.2-9.5,5.2c-6.3,0-10.8-4.6-10.8-11.1
		C14.7,13,19.2,8.3,25.5,8.3z M115.7,8.3c2.8,0,5.3,1,7.1,2.9c1.9,2,2.9,4.7,3,8l0,0v1.1h-17.5c0.2,4.1,3.3,7.1,7.3,7.1
		c2.9,0,5-1.2,6.5-3.9l0,0l0.2-0.3l2.9,1.9l-0.2,0.3c-2,3.4-5.3,5.2-9.5,5.2c-6.3,0-10.8-4.6-10.8-11.1
		C104.9,13,109.4,8.3,115.7,8.3z M13.4,8.7v3.2H3.6v18.4H0.1V8.7H13.4z M66.9,2.3v27.9h-3.4V2.3H66.9z M94,8.4c4.9,0,8,3.4,8,8.8
		l0,0v13.1h-3.4V17.2c0-3.4-1.9-5.6-5-5.6c-3.9,0-5.2,2.7-5.2,5.2l0,0v13.5h-3.4V17.2c0-3.4-1.9-5.6-4.9-5.6c-2.5,0-5.2,1.9-5.2,4.8
		l0,0v13.8h-3.4V8.7h3.4v2.1c1.4-1.5,3.4-2.4,5.8-2.4c3.5,0,5.4,1.8,6.4,3.4C88.6,9.7,91.1,8.4,94,8.4z M150.4,2.4
		c4.3,0,7.7,3.3,7.7,7.5c0,2.4-1.1,4.4-3,5.7l0,0l-0.2,0.1l0.2,0.1c2.6,1.2,4.1,3.6,4.1,6.5c0,4.4-3.5,7.8-8,7.8l0,0h-12V2.4H150.4z
		 M254.6,1.9c5.6,0,8.6,4.2,8.6,8.4c0,3.7-2.7,6.8-5,9.2l0,0l-7.4,7.3h12.9v3.4h-17.8v-2.9l9.8-10c2-2,4-4.3,4-6.9
		c0-2.5-1.6-5.1-5.1-5.1c-2.6,0-4.6,1.3-5.8,3.7l0,0L246,7.2C247.6,3.8,250.8,1.9,254.6,1.9z M199.1,8.3c5.1,0,8.2,3.3,8.2,8.7l0,0
		v13.1h-3.5V17.3c0-3.5-2-5.6-5.5-5.6c-4,0-6.4,2.6-6.4,7.2l0,0v11.3h-3.5V8.9h3.5v3.4l0.2-0.4C193.8,9.5,196,8.3,199.1,8.3z
		 M172.9,11.7c-4.4,0-7.7,3.4-7.7,7.8s3.3,7.8,7.7,7.8c4.4,0,7.8-3.4,7.8-7.8S177.4,11.7,172.9,11.7z M221.2,11.7
		c-4.4,0-7.7,3.4-7.7,7.8s3.3,7.8,7.7,7.8c4.4,0,7.8-3.4,7.8-7.8S225.7,11.7,221.2,11.7z M48.8,11.8c-4.2,0-7.3,3.3-7.3,7.7
		c0,4.4,3.2,7.7,7.3,7.7c4.3,0,7.3-3.1,7.3-7.7C56.1,14.9,53.2,11.8,48.8,11.8z M151.3,17.6h-8.5v9.3h8.5c2.6,0,4.6-2.1,4.6-4.7
		C155.8,19.6,153.8,17.6,151.3,17.6L151.3,17.6z M25.4,11.6c-3.5,0-6.3,2.3-7.2,5.6l0,0h13.8C31.5,13.8,28.9,11.6,25.4,11.6z
		 M115.6,11.6c-3.5,0-6.3,2.3-7.2,5.6l0,0h13.8C121.7,13.8,119.1,11.6,115.6,11.6z M150.4,5.6h-7.6v8.8h7.6c2.4,0,4.3-1.9,4.3-4.4
		C154.7,7.6,152.7,5.6,150.4,5.6L150.4,5.6z"/>
</g>
</svg>
