<?xml version="1.0" encoding="utf-8"?>
<!-- Generator: Adobe Illustrator 25.4.1, SVG Export Plug-In . SVG Version: 6.00 Build 0)  -->
<svg version="1.1" id="图层_1" xmlns="http://www.w3.org/2000/svg" xmlns:xlink="http://www.w3.org/1999/xlink" x="0px" y="0px"
	 viewBox="0 0 204.9 30.3" style="enable-background:new 0 0 204.9 30.3;" xml:space="preserve">
<g>
	<g>
		<path d="M74.7,16.2c0-2.9,2.7-4.8,5.2-4.8c3,0,4.9,2.1,4.9,5.6V30h3.4V16.5c0-2.5,1.4-5.2,5.2-5.2c3,0,5,2.2,5,5.6V30h3.4V16.9
			c0-5.4-3.1-8.8-8-8.8c-2.9,0-5.4,1.2-7,3.4c-1-1.7-2.9-3.4-6.4-3.4c-2.4,0-4.4,0.8-5.8,2.4V8.4h-3.4V30h3.4V16.2z"/>
		<path d="M35.5,18.9c0-3.3-1-6-3-8C30.7,9,28.2,8,25.4,8c-6.3,0-10.8,4.7-10.8,11.1c0,6.5,4.4,11.1,10.8,11.1
			c4.2,0,7.5-1.8,9.5-5.2l0.2-0.3L32,22.8l-0.2,0.3c-1.6,2.6-3.6,3.9-6.5,3.9c-4,0-7.1-3-7.3-7.1h17.5V18.9z M18.2,16.9
			c0.8-3.3,3.7-5.6,7.2-5.6c3.4,0,6,2.2,6.6,5.6H18.2z"/>
		<polygon points="3.4,11.6 13.3,11.6 13.3,8.4 0,8.4 0,30 3.4,30 		"/>
		<path d="M115.5,30.3c4.2,0,7.5-1.8,9.5-5.2l0.2-0.3l-2.9-1.9l-0.2,0.3c-1.6,2.6-3.6,3.9-6.5,3.9c-4,0-7.1-3-7.3-7.1h17.5v-1.1
			c0-3.3-1-6-3-8C120.9,9,118.4,8,115.6,8c-6.3,0-10.8,4.7-10.8,11.1C104.8,25.7,109.2,30.3,115.5,30.3z M108.4,16.9
			c0.8-3.3,3.7-5.6,7.2-5.6c3.4,0,6,2.2,6.6,5.6H108.4z"/>
		<rect x="63.4" y="2" width="3.4" height="27.9"/>
		<path d="M48.9,30.3c2.5,0,4.9-0.8,6.7-2.3v2h3.4V8.4h-3.4v2c-1.8-1.5-4.2-2.3-6.7-2.3c-3.1,0-5.9,1.1-7.9,3.2
			c-2,2-3.1,4.9-3.1,7.9c0,3.1,1.1,5.9,3.1,7.9C43,29.2,45.8,30.3,48.9,30.3z M41.4,19.2c0-4.4,3.2-7.7,7.3-7.7
			c4.3,0,7.3,3.1,7.3,7.7c0,4.6-2.9,7.7-7.3,7.7C44.5,26.9,41.4,23.6,41.4,19.2z"/>
	</g>
	<path d="M149.2,2.1h-10v27.7h3.5v-10h6.6c5.1,0,8.9-3.8,8.9-8.9S154.3,2.1,149.2,2.1z M149.2,16.6h-6.6V5.3h6.6
		c3.2,0,5.5,2.4,5.5,5.6C154.7,14.2,152.3,16.6,149.2,16.6z"/>
	<g>
		<path d="M170.2,30.3c2.5,0,4.9-0.8,6.7-2.3v2h3.4V8.4h-3.4v2c-1.8-1.5-4.2-2.3-6.7-2.3c-3.1,0-5.9,1.1-7.9,3.2
			c-2,2-3.1,4.9-3.1,7.9c0,3.1,1.1,5.9,3.1,7.9C164.3,29.2,167.1,30.3,170.2,30.3z M162.7,19.2c0-4.4,3.2-7.7,7.3-7.7
			c4.3,0,7.3,3.1,7.3,7.7c0,4.6-2.9,7.7-7.3,7.7C165.8,26.9,162.7,23.6,162.7,19.2z"/>
		<path d="M194.8,30.3c2.5,0,4.9-0.8,6.7-2.3v2h3.4V0h-3.4v10.4c-1.8-1.5-4.2-2.3-6.7-2.3c-3.1,0-5.9,1.1-7.9,3.2
			c-2,2-3.1,4.9-3.1,7.9c0,3.1,1.1,5.9,3.1,7.9C188.9,29.2,191.7,30.3,194.8,30.3z M187.3,19.2c0-4.4,3.2-7.7,7.3-7.7
			c4.3,0,7.3,3.1,7.3,7.7c0,4.6-2.9,7.7-7.3,7.7C190.5,26.9,187.3,23.6,187.3,19.2z"/>
	</g>
</g>
</svg>
