<svg id="图层_1" data-name="图层 1" xmlns="http://www.w3.org/2000/svg" viewBox="0 0 435.42 31"><defs><style>.cls-1{fill:#231815;}</style></defs><title>型号-realme GT Master Edition</title><polygon class="cls-1" points="199.81 19.18 193.22 8.26 189.45 8.26 189.45 29.9 192.92 29.9 192.92 14.23 193.02 14.39 199.62 25.33 200 25.33 206.69 14.27 206.69 29.9 210.16 29.9 210.16 8.26 206.42 8.26 199.81 19.18"/><polygon class="cls-1" points="320.72 20.57 332.1 20.57 332.1 17.4 320.72 17.4 320.72 11.45 332.85 11.45 332.85 8.25 317.37 8.25 317.37 29.93 333 29.93 333 26.73 320.72 26.73 320.72 20.57"/><path class="cls-1" d="M315.56,283.36h7c-.63,2.8-2.95,4.77-6.75,4.77-4.69,0-7.73-3.25-7.73-7.46a7.3,7.3,0,0,1,7.52-7.53,7,7,0,0,1,6.16,3.32l2.95-1.71a10.5,10.5,0,0,0-9.11-4.95,10.84,10.84,0,1,0,.18,21.68c6.13,0,10.25-4.06,10.25-9.77v-1.43H315.56Z" transform="translate(-165.59 -261.48)"/><polygon class="cls-1" points="160.72 11.99 166.64 11.99 166.64 29.61 170.07 29.61 170.07 11.99 175.96 11.99 175.96 8.7 160.72 8.7 160.72 11.99"/><path class="cls-1" d="M259.54,269.56a8.37,8.37,0,0,0-7,3.44,7.06,7.06,0,0,0-6.42-3.44,7.65,7.65,0,0,0-5.8,2.39v-2.1h-3.43v21.6h3.43V277.62a5.09,5.09,0,0,1,5.17-4.84c3,0,4.91,2.14,4.91,5.59v13.08h3.44V278a4.84,4.84,0,0,1,5.25-5.17c3,0,4.95,2.2,4.95,5.59v13.08h3.44V278.37C267.51,272.94,264.45,269.56,259.54,269.56Z" transform="translate(-165.59 -261.48)"/><path class="cls-1" d="M191,269.48c-6.29,0-10.86,4.69-10.86,11.15s4.43,11.11,10.78,11.11a10.35,10.35,0,0,0,9.47-5.24l.17-.3-2.94-1.89-.19.32a7,7,0,0,1-6.51,3.88,7.25,7.25,0,0,1-7.33-7.06h17.48v-1.12a11.24,11.24,0,0,0-3-8A9.77,9.77,0,0,0,191,269.48Zm-7.25,8.87a7.31,7.31,0,0,1,7.17-5.65,6.57,6.57,0,0,1,6.65,5.65Z" transform="translate(-165.59 -261.48)"/><polygon class="cls-1" points="0 30.01 3.43 30.01 3.43 11.6 13.27 11.6 13.27 8.37 0 8.37 0 30.01"/><path class="cls-1" d="M281.3,269.48c-6.3,0-10.86,4.69-10.86,11.15s4.43,11.11,10.77,11.11a10.34,10.34,0,0,0,9.47-5.24l.17-.3-2.94-1.89-.18.32a7,7,0,0,1-6.52,3.88,7.25,7.25,0,0,1-7.33-7.06h17.48v-1.12a11.23,11.23,0,0,0-3-8A9.8,9.8,0,0,0,281.3,269.48ZM274,278.35a7.32,7.32,0,0,1,7.17-5.65,6.58,6.58,0,0,1,6.66,5.65Z" transform="translate(-165.59 -261.48)"/><rect class="cls-1" x="63.44" y="1.99" width="3.43" height="27.97"/><path class="cls-1" d="M221.18,271.88a10.58,10.58,0,0,0-6.67-2.32,10.79,10.79,0,0,0-7.87,3.22,11.76,11.76,0,0,0,0,15.85,10.83,10.83,0,0,0,7.87,3.19,10.45,10.45,0,0,0,6.67-2.31v2h3.4V269.9h-3.4Zm-6.84,16.51a7.71,7.71,0,0,1,0-15.4c4.35,0,7.26,3.11,7.26,7.72S218.69,288.39,214.34,288.39Z" transform="translate(-165.59 -261.48)"/><path class="cls-1" d="M397.3,274.24l-.09-.14a9.23,9.23,0,0,0-8.09-4.23,10.55,10.55,0,0,0-7.64,3.25,11.64,11.64,0,0,0,0,16,10.55,10.55,0,0,0,7.64,3.25,9.23,9.23,0,0,0,8.09-4.23l.09-.14v3.82h3.64v-21.4H397.3Zm-7.71,14.63a7.75,7.75,0,1,1,7.71-7.74A7.54,7.54,0,0,1,389.59,288.87Z" transform="translate(-165.59 -261.48)"/><path class="cls-1" d="M413.08,279.45c-2.56-.71-4.77-1.32-4.77-3.27s1.95-2.83,3.77-2.83a4.7,4.7,0,0,1,4.56,2.72l0,.05,3.19-1.79,0,0,0,0a8.37,8.37,0,0,0-7.79-4.5c-4.44,0-7.66,2.71-7.66,6.45,0,4.44,3.84,5.51,7.23,6.46,2.58.72,4.81,1.34,4.81,3.3,0,2.6-2.94,2.88-4.2,2.88-2.62,0-4.6-1.24-5.29-3.32l0-.06-3.28,1.88,0,0,0,0c1.33,3.17,4.55,5.06,8.61,5.06,4.83,0,8.09-2.61,8.09-6.5C420.35,281.46,416.49,280.39,413.08,279.45Z" transform="translate(-165.59 -261.48)"/><path class="cls-1" d="M428.52,266,425,267.1V271h-4.14v3.42H425v11.39c0,2.28.56,3.87,1.7,4.88,1.44,1.26,3.8,1.62,7.41,1.15v-3.17h-.36c-2.24.11-3.71.17-4.52-.6a3,3,0,0,1-.69-2.27V274.42h5.57V271h-5.57Z" transform="translate(-165.59 -261.48)"/><path class="cls-1" d="M541.21,266l-3.55,1.06V271h-4.14v3.42h4.14v11.39c0,2.28.56,3.87,1.71,4.88,1.44,1.26,3.79,1.62,7.4,1.15v-3.17h-.36c-2.23.11-3.7.17-4.51-.6a3,3,0,0,1-.69-2.27V274.42h5.56V271h-5.56Z" transform="translate(-165.59 -261.48)"/><path class="cls-1" d="M446.79,269.87a10.87,10.87,0,0,0-11.21,11.26,11.23,11.23,0,0,0,3.15,8,11.43,11.43,0,0,0,8.32,3.22,10.77,10.77,0,0,0,9.39-4.79l-3.09-1.75a7.15,7.15,0,0,1-6.21,3.12c-4.12,0-7.12-2.34-7.83-6.11v-.05h18a11.28,11.28,0,0,0,.12-1.63,11.79,11.79,0,0,0-2.9-7.9A10.25,10.25,0,0,0,446.79,269.87Zm-7.49,9.76v-.06a7.16,7.16,0,0,1,7.48-6.28,7,7,0,0,1,4.47,1.53,7.49,7.49,0,0,1,2.51,4.75v.06Z" transform="translate(-165.59 -261.48)"/><path class="cls-1" d="M464,274l-.1.21v-3.8h-3.64v21.41h3.64V280.48a6,6,0,0,1,6.41-6.64h.3V270A6.81,6.81,0,0,0,464,274Z" transform="translate(-165.59 -261.48)"/><path class="cls-1" d="M519.67,274.24l-.1-.14a9.2,9.2,0,0,0-8.08-4.23,10.55,10.55,0,0,0-7.64,3.25,11.64,11.64,0,0,0,0,16,10.55,10.55,0,0,0,7.64,3.25,9.2,9.2,0,0,0,8.08-4.23l.1-.14v3.82h3.64V261.48h-3.64ZM512,288.87a7.75,7.75,0,1,1,7.71-7.74A7.54,7.54,0,0,1,512,288.87Z" transform="translate(-165.59 -261.48)"/><rect class="cls-1" x="361.9" y="8.94" width="3.64" height="21.4"/><path class="cls-1" d="M529.34,261.48a2.49,2.49,0,0,0-2.49,2.49,2.47,2.47,0,1,0,2.49-2.49Z" transform="translate(-165.59 -261.48)"/><path class="cls-1" d="M551.74,261.48a2.5,2.5,0,0,0-2.49,2.49,2.47,2.47,0,0,0,2.49,2.44,2.44,2.44,0,0,0,2.44-2.44A2.47,2.47,0,0,0,551.74,261.48Z" transform="translate(-165.59 -261.48)"/><rect class="cls-1" x="384.31" y="8.94" width="3.64" height="21.4"/><path class="cls-1" d="M567.82,269.87a11.26,11.26,0,1,0,0,22.51,11.27,11.27,0,0,0,8-3.25,11.33,11.33,0,0,0,0-16A11.27,11.27,0,0,0,567.82,269.87Zm5.45,16.75a7.79,7.79,0,0,1-10.87,0,8,8,0,0,1,0-11,7.79,7.79,0,0,1,10.87,0,7.94,7.94,0,0,1,0,11Z" transform="translate(-165.59 -261.48)"/><path class="cls-1" d="M598.74,272.22a8.07,8.07,0,0,0-6-2.35,7.54,7.54,0,0,0-6.92,3.63l-.09.15v-3.22h-3.64v21.4h3.64V280.48c0-4.54,2.29-7.14,6.28-7.14,3.37,0,5.39,2.07,5.39,5.55v12.94H601V278.67A9.13,9.13,0,0,0,598.74,272.22Z" transform="translate(-165.59 -261.48)"/></svg>