<?xml version="1.0" encoding="UTF-8"?>
<svg width="500px" height="64px" viewBox="0 0 500 64" version="1.1" xmlns="http://www.w3.org/2000/svg" xmlns:xlink="http://www.w3.org/1999/xlink">
    <title>realme UI 2.0</title>
    <defs>
        <polygon id="path-1" points="0 63.8888889 280.829596 63.8888889 280.829596 0 0 0"></polygon>
        <linearGradient x1="176.146007%" y1="30.7214946%" x2="-103.736392%" y2="84.5174782%" id="linearGradient-3">
            <stop stop-color="#1ACAE1" offset="0%"></stop>
            <stop stop-color="#FFDD26" offset="9.14064098%"></stop>
            <stop stop-color="#E037FF" offset="29.8065974%"></stop>
            <stop stop-color="#43D0FF" offset="66.673381%"></stop>
            <stop stop-color="#21EF78" offset="77.2361962%"></stop>
            <stop stop-color="#FFF00D" offset="100%"></stop>
        </linearGradient>
    </defs>
    <g id="页面-1" stroke="none" stroke-width="1" fill="none" fill-rule="evenodd">
        <g id="realme/Q3-pro狂欢版/2560渐变版" transform="translate(-1031.000000, -20959.000000)">
            <g id="20_realme-UI-2.0" transform="translate(0.000000, 20809.000000)">
                <g id="realme-UI-2.0" transform="translate(1031.000000, 150.000000)">
                    <g id="logo">
                        <path d="M166.725726,32.4760711 C166.725726,26.0575027 172.736566,21.7458253 178.350203,21.7458253 C185.172077,21.7458253 189.41018,26.4986723 189.41018,34.1493129 L189.41018,63.1944444 L197.136796,63.1944444 L197.136796,33.2195523 C197.136796,27.6727505 200.240162,21.7458253 208.949545,21.7458253 C215.725303,21.7458253 220.103277,26.6146601 220.103277,34.1493129 L220.103277,63.1944444 L227.829893,63.1944444 L227.829893,34.1493129 C227.829893,22.0803852 220.955989,14.5833333 209.891082,14.5833333 C203.375391,14.5833333 197.738943,17.3496564 194.221255,22.2215435 C191.912789,18.5033416 187.615483,14.5833333 179.762486,14.5833333 C174.455928,14.5833333 169.910701,16.4473224 166.725726,19.8809515 L166.725726,15.2343161 L158.99911,15.2343161 L158.99911,63.1944444 L166.725726,63.1944444 L166.725726,32.4760711 Z" id="Fill-1" fill="#FFFFFF"></path>
                        <path d="M41.0991961,33.5341491 C42.9439226,26.1243904 49.4114696,21.0303743 57.1429611,21.0303743 C64.798714,21.0303743 70.6797319,26.0167194 72.0314887,33.5341491 L41.0991961,33.5341491 Z M79.8437088,37.9340599 C79.7977755,30.701224 77.5060128,24.5799445 73.2166206,20.2316857 C69.1817103,16.141555 63.5396256,13.8888889 57.3297237,13.8888889 C43.2545848,13.8888889 33.038776,24.2763396 33.038776,38.5879815 C33.038776,53.0757081 42.9506054,63.1944444 57.1429611,63.1944444 C66.5480988,63.1944444 73.8753687,59.1811082 78.3314305,51.5877663 L78.7151582,50.9342417 L72.1313301,46.7439827 L71.7105796,47.4548495 C68.2377392,53.3206034 63.608726,56.0525179 57.1429611,56.0525179 C48.1380799,56.0525179 41.2177494,49.3778862 40.7448729,40.3976571 L79.8437088,40.3976571 L79.8437088,37.9340599 Z" id="Fill-3" fill="#FFFFFF"></path>
                        <polygon id="Fill-5" fill="#FFFFFF" points="7.66067773 22.4199385 29.5972369 22.4199385 29.5972369 15.2777778 0 15.2777778 0 63.1944444 7.66067773 63.1944444"></polygon>
                        <path d="M242.085643,33.5341491 C243.930385,26.1243904 250.397988,21.0303743 258.129144,21.0303743 C265.784918,21.0303743 271.665541,26.0167194 273.017309,33.5341491 L242.085643,33.5341491 Z M258.129144,63.1944444 C267.534318,63.1944444 274.861651,59.1811082 279.317751,51.5877663 L279.701526,50.9342417 L273.117597,46.7439827 L272.696888,47.4548495 C269.223973,53.3206034 264.594875,56.0525179 258.129144,56.0525179 C249.124141,56.0525179 242.203752,49.3778862 241.730871,40.3976571 L280.829596,40.3976571 L280.829596,37.9340599 C280.783707,30.701224 278.49188,24.5799445 274.202897,20.2316857 C270.167952,16.141555 264.525864,13.8888889 258.316354,13.8888889 C244.240604,13.8888889 234.024664,24.2763396 234.024664,38.5879815 C234.024664,53.0757081 243.936667,63.1944444 258.129144,63.1944444 L258.129144,63.1944444 Z" id="Fill-7" fill="#FFFFFF"></path>
                        <mask id="mask-2" fill="white">
                            <use xlink:href="#path-1"></use>
                        </mask>
                        <g id="Clip-10"></g>
                        <polygon id="Fill-9" fill="#FFFFFF" mask="url(#mask-2)" points="141.103106 63.1944444 149.3628 63.1944444 149.3628 0 141.103106 0"></polygon>
                        <path d="M92.3124182,39.2822058 C92.3124182,29.5371652 99.3446112,22.1882117 108.670045,22.1882117 C118.34271,22.1882117 124.841741,29.0579566 124.841741,39.2822058 C124.841741,49.451362 118.34271,56.2839664 108.670045,56.2839664 C99.3446112,56.2839664 92.3124182,48.9747558 92.3124182,39.2822058 M109.04297,63.8888889 C114.629745,63.8888889 119.945702,62.0417479 123.909517,58.7710079 L123.909517,63.1475359 L131.466796,63.1475359 L131.466796,15.3246864 L123.909517,15.3246864 L123.909517,19.7232692 C119.875102,16.4388993 114.556483,14.5833333 109.04297,14.5833333 C102.203452,14.5833333 95.9747516,17.1127203 91.5044435,21.7050332 C87.0919114,26.2382391 84.6618636,32.4804783 84.6618636,39.2822058 C84.6618636,46.0786843 87.0923107,52.3054851 91.5062629,56.8152687 C95.9703585,61.3767048 102.198127,63.8888889 109.04297,63.8888889" id="Fill-11" fill="#FFFFFF" mask="url(#mask-2)"></path>
                    </g>
                    <path d="M334.726401,63.8888889 C345.455397,63.8888889 353.309304,57.1803533 353.309304,46.403876 L353.309304,13.0039331 L345.554947,13.0039331 L345.554947,46.2613201 C345.554947,52.1134469 341.949189,56.2527561 334.726401,56.2527561 C327.503612,56.2527561 323.842098,52.1134469 323.842098,46.2613201 L323.842098,13.0039331 L316.143498,13.0039331 L316.143498,46.403876 C316.143498,57.1803533 323.92728,63.8888889 334.726401,63.8888889 Z M370.515695,63.1918347 L370.515695,13.0039331 L362.256627,13.0039331 L362.256627,63.1918347 L370.515695,63.1918347 Z" id="UI" fill="#FFFFFF" fill-rule="nonzero"></path>
                    <path d="M437.87904,61.8368249 L437.87904,54.3938904 L417.045906,54.3938904 L428.582026,42.7732677 C433.300965,37.9542272 436.963425,32.7808455 436.963425,26.6153084 C436.963425,16.7646226 429.286345,11.3077679 421.186674,11.3077679 C414.636505,11.3077679 408.438495,14.5677071 405.269058,21.3710584 L411.919305,25.3263177 C413.820967,21.3576961 417.101622,19.0013496 421.186674,19.0013496 C425.412589,19.0013496 429.241176,21.9342756 429.241176,26.8950526 C429.241176,30.6510694 426.24435,34.3891305 422.722753,37.9325426 L405.409922,55.4586831 L405.409922,61.8368249 L437.87904,61.8368249 Z M449.051477,62.6872439 C451.693826,62.6872439 453.885041,60.4824541 453.885041,57.823737 C453.885041,55.1001732 451.693826,52.9602302 449.051477,52.9602302 C446.344682,52.9602302 444.217914,55.1001732 444.217914,57.823737 C444.217914,60.4824541 446.344682,62.6872439 449.051477,62.6872439 Z M480.63122,62.7581121 C493.027239,62.7581121 500,52.3404804 500,37.03294 C500,21.7253996 493.027239,11.3077679 480.63122,11.3077679 C468.235201,11.3077679 461.26244,21.7253996 461.26244,37.03294 C461.26244,52.3404804 468.235201,62.7581121 480.63122,62.7581121 Z M480.63122,55.0792679 C473.031071,55.0792679 469.125929,48.4427271 469.125929,37.03294 C469.125929,25.623153 472.907205,19.0013496 480.63122,19.0013496 C488.355235,19.0013496 492.183759,25.623153 492.183759,37.03294 C492.183759,48.4427271 488.231369,55.0792679 480.63122,55.0792679 Z" id="2.0" fill="url(#linearGradient-3)" fill-rule="nonzero"></path>
                </g>
            </g>
        </g>
    </g>
</svg>