<?xml version="1.0" encoding="UTF-8"?>
<svg width="44px" height="44px" viewBox="0 0 44 44" version="1.1" xmlns="http://www.w3.org/2000/svg" xmlns:xlink="http://www.w3.org/1999/xlink">
    <!-- Generator: Sketch 52.5 (67469) - http://www.bohemiancoding.com/sketch -->
    <title>Group 16</title>
    <desc>Created with Sketch.</desc>
    <g id="品牌页" stroke="none" stroke-width="1" fill="none" fill-rule="evenodd">
        <g id="mobile-品牌页" transform="translate(-158.000000, -300.000000)">
            <g id="banner_active" transform="translate(0.000000, 120.000000)">
                <g id="Group" transform="translate(124.000000, 140.000000)">
                    <g id="Group-16" transform="translate(36.000000, 42.000000)">
                        <g id="Group-2">
                            <circle id="Oval" stroke="#FFFFFF" stroke-width="4" cx="20" cy="20" r="20"></circle>
                            <path d="M22.7515601,15.1585867 L27.2547269,22.8139702 C27.8147658,23.7660364 27.4969649,24.9918399 26.5448987,25.5518788 C26.2375454,25.7326749 25.887444,25.8280104 25.5308584,25.8280104 L16.524525,25.8280104 C15.4199555,25.8280104 14.524525,24.9325799 14.524525,23.8280104 C14.524525,23.4714249 14.6198605,23.1213234 14.8006566,22.8139702 L19.3038233,15.1585867 C19.8638622,14.2065205 21.0896657,13.8887196 22.041732,14.4487586 C22.3348393,14.6211746 22.5791441,14.8654794 22.7515601,15.1585867 Z" id="Triangle" fill="#FFFFFF" transform="translate(21.027851, 20.000159) rotate(-270.000000) translate(-21.027851, -20.000159) "></path>
                        </g>
                    </g>
                </g>
            </g>
        </g>
    </g>
</svg>