<?xml version="1.0" encoding="UTF-8"?>
<svg width="219px" height="29px" viewBox="0 0 219 29" version="1.1" xmlns="http://www.w3.org/2000/svg" xmlns:xlink="http://www.w3.org/1999/xlink">
    <!-- Generator: Sketch 59.1 (86144) - https://sketch.com -->
    <title>编组</title>
    <desc>Created with Sketch.</desc>
    <defs>
        <polygon id="path-1" points="0 28.3451 218.441 28.3451 218.441 0.0001 0 0.0001"></polygon>
    </defs>
    <g id="产品站" stroke="none" stroke-width="1" fill="none" fill-rule="evenodd">
        <g id="编组">
            <path d="M160.4281,18.2362 C160.4281,23.9402 156.3061,28.0032 150.1841,28.0032 C143.6721,28.0032 139.0421,23.1642 139.0421,17.1612 C139.0421,11.1572 143.7321,6.3192 150.0041,6.3192 C153.9761,6.3192 157.3521,8.3202 159.1141,11.2772 L156.1571,12.9792 C155.0811,11.0382 152.7521,9.6642 150.0041,9.6642 C145.5841,9.6642 142.4771,12.9202 142.4771,17.1902 C142.4771,21.4022 145.5241,24.6572 150.2131,24.6572 C154.0061,24.6572 156.3361,22.6862 156.9631,19.8792 L149.9741,19.8792 L149.9741,16.8002 L160.4281,16.8002 L160.4281,18.2362 Z" id="Fill-1" fill="#050101"></path>
            <polygon id="Fill-3" fill="#050101" points="175.9574 9.9931 170.0734 9.9931 170.0734 27.6141 166.6384 27.6141 166.6384 9.9931 160.7254 9.9931 160.7254 6.7071 175.9574 6.7071"></polygon>
            <path d="M74.765,14.1396 C74.765,11.2486 77.436,9.3086 79.931,9.3086 C82.963,9.3086 84.846,11.4486 84.846,14.8926 L84.846,27.9696 L88.28,27.9696 L88.28,14.4746 C88.28,11.9766 89.659,9.3086 93.53,9.3086 C96.54,9.3086 98.486,11.4996 98.486,14.8926 L98.486,27.9696 L101.92,27.9696 L101.92,14.8926 C101.92,9.4576 98.865,6.0826 93.948,6.0826 C91.052,6.0826 88.547,7.3276 86.984,9.5226 C85.958,7.8486 84.049,6.0826 80.558,6.0826 C78.201,6.0826 76.181,6.9226 74.765,8.4686 L74.765,6.3766 L71.331,6.3766 L71.331,27.9696 L74.765,27.9696 L74.765,14.1396 Z" id="Fill-5" fill="#050101"></path>
            <path d="M18.1781,14.87 C19.0031,11.523 21.8941,9.224 25.3501,9.224 C28.7721,9.224 31.4021,11.475 32.0061,14.87 L18.1781,14.87 Z M35.4981,16.856 C35.4771,13.591 34.4531,10.827 32.5351,8.864 C30.7321,7.016 28.2101,6 25.4331,6 C19.1411,6 14.5741,10.689 14.5741,17.152 C14.5741,23.693 19.0061,28.263 25.3501,28.263 C29.5541,28.263 32.8301,26.45 34.8221,23.021 L34.9931,22.725 L32.0511,20.835 L31.8621,21.156 C30.3101,23.805 28.2411,25.038 25.3501,25.038 C21.3241,25.038 18.2311,22.023 18.0191,17.97 L35.4981,17.97 L35.4981,16.856 Z" id="Fill-7" fill="#050101"></path>
            <polygon id="Fill-9" fill="#050101" points="3.434 9.6015 13.267 9.6015 13.267 6.3755 0 6.3755 0 28.0115 3.434 28.0115"></polygon>
            <path d="M108.452,14.87 C109.277,11.523 112.168,9.224 115.624,9.224 C119.046,9.224 121.675,11.475 122.279,14.87 L108.452,14.87 Z M115.624,28.263 C119.828,28.263 123.104,26.45 125.096,23.021 L125.267,22.725 L122.324,20.835 L122.136,21.156 C120.583,23.805 118.514,25.038 115.624,25.038 C111.598,25.038 108.505,22.023 108.293,17.97 L125.771,17.97 L125.771,16.856 C125.751,13.591 124.726,10.827 122.809,8.864 C121.006,7.016 118.483,6 115.707,6 C109.415,6 104.848,10.689 104.848,17.152 C104.848,23.693 109.279,28.263 115.624,28.263 L115.624,28.263 Z" id="Fill-11" fill="#050101"></path>
            <mask id="mask-2" fill="white">
                <use xlink:href="#path-1"></use>
            </mask>
            <g id="Clip-14"></g>
            <polygon id="Fill-13" fill="#050101" mask="url(#mask-2)" points="63.443 27.9701 66.877 27.9701 66.877 0.0001 63.443 0.0001"></polygon>
            <path d="M41.4144,17.2353 C41.4144,12.8363 44.5704,9.5173 48.7564,9.5173 C53.0974,9.5173 56.0144,12.6193 56.0144,17.2353 C56.0144,21.8273 53.0974,24.9123 48.7564,24.9123 C44.5704,24.9123 41.4144,21.6123 41.4144,17.2353 M48.9234,28.3443 C51.4314,28.3443 53.8164,27.5103 55.5964,26.0353 L55.5964,28.0103 L58.9874,28.0103 L58.9874,6.4193 L55.5964,6.4193 L55.5964,8.4043 C53.7854,6.9223 51.3974,6.0843 48.9234,6.0843 C45.8534,6.0843 43.0584,7.2253 41.0514,9.2983 C39.0714,11.3453 37.9804,14.1653 37.9804,17.2353 C37.9804,20.3033 39.0714,23.1163 41.0524,25.1523 C43.0564,27.2123 45.8514,28.3443 48.9234,28.3443" id="Fill-15" fill="#050101" mask="url(#mask-2)"></path>
            <path d="M194.4613,15.5175 L192.5573,15.4895 L192.7923,12.4765 L197.7773,12.4765 L198.1263,11.0015 L191.4263,11.0015 L191.4393,11.0165 L190.9403,17.1035 L194.4263,17.1035 C195.3453,17.1035 196.3203,17.4545 196.7703,18.3095 C197.3023,19.3265 196.9253,20.5165 195.9653,21.1145 C194.9853,21.7235 193.7273,21.7275 192.6163,21.6215 C192.5433,21.6155 191.3763,21.4835 191.1713,21.3455 L190.8243,22.8155 C192.2783,23.3035 193.8963,23.2745 193.8973,23.2745 C195.5003,23.2435 197.2203,22.5825 198.1043,21.1585 C198.9873,19.7315 198.7073,17.7565 197.4823,16.6135 C196.6733,15.8585 195.5533,15.5175 194.4613,15.5175" id="Fill-16" fill="#050101" mask="url(#mask-2)"></path>
            <path d="M206.2865,18.538 L209.9905,18.538 C209.6805,20.352 208.1935,21.736 205.6865,21.736 C202.8005,21.736 200.8825,19.662 200.8825,17.034 C200.8825,14.39 202.8165,12.314 205.6175,12.314 C207.3055,12.314 208.7575,13.173 209.4615,14.439 C209.4715,14.458 210.6075,13.268 210.6075,13.268 C209.5465,11.766 207.7155,10.76 205.6355,10.76 C201.9525,10.76 199.2915,13.559 199.2915,17.034 C199.2915,20.492 201.9355,23.309 205.6685,23.309 C209.3165,23.309 211.5985,20.89 211.5985,17.811 L211.5985,17.087 L205.5475,17.087 L206.2865,18.538 Z" id="Fill-17" fill="#050101" mask="url(#mask-2)"></path>
            <path d="M216.9437,23.8681 C216.9437,25.3451 215.7417,26.5461 214.2647,26.5461 L186.9537,26.5461 C185.4767,26.5461 184.2747,25.3451 184.2747,23.8681 L184.2747,10.2011 C184.2747,8.7231 185.4767,7.5221 186.9537,7.5221 L214.2647,7.5221 C215.7417,7.5221 216.9437,8.7231 216.9437,10.2011 L216.9437,23.8681 Z M214.2647,6.0251 L186.9537,6.0251 C184.6517,6.0251 182.7787,7.8981 182.7787,10.2011 L182.7787,23.8681 C182.7787,26.1701 184.6517,28.0431 186.9537,28.0431 L214.2647,28.0431 C216.5677,28.0431 218.4407,26.1701 218.4407,23.8681 L218.4407,10.2011 C218.4407,7.8981 216.5677,6.0251 214.2647,6.0251 L214.2647,6.0251 Z" id="Fill-18" fill="#050101" mask="url(#mask-2)"></path>
        </g>
    </g>
</svg>