<?xml version="1.0" encoding="UTF-8"?>
<svg width="120px" height="120px" viewBox="0 0 120 120" version="1.1" xmlns="http://www.w3.org/2000/svg" xmlns:xlink="http://www.w3.org/1999/xlink">
    <!-- Generator: Sketch 54.1 (76490) - https://sketchapp.com -->
    <title>ic_brand_使命_pc</title>
    <desc>Created with Sketch.</desc>
    <g id="ic_brand_使命_pc" stroke="none" stroke-width="1" fill="none" fill-rule="evenodd">
        <path d="M60.4646349,11.4096438 L91.1402576,44.6270584 L94.0788807,41.9132982 L62.6862848,7.91950181 C62.6295354,7.85917364 62.6295354,7.85917364 62.5706044,7.80097468 C61.3810674,6.64764568 59.4817992,6.67699803 58.3284702,7.866535 L27.5533597,39.6078087 L30.425156,42.3921913 L60.4646349,11.4096438 Z" id="路径-5" fill="#000000" fill-rule="nonzero"></path>
        <path d="M60,111 C83.7482442,111 103,91.7482442 103,68 C103,44.2517558 83.7482442,25 60,25 C36.2517558,25 17,44.2517558 17,68 C17,91.7482442 36.2517558,111 60,111 Z M60,107 C38.4608948,107 21,89.5391052 21,68 C21,46.4608948 38.4608948,29 60,29 C81.5391052,29 99,46.4608948 99,68 C99,89.5391052 81.5391052,107 60,107 Z" id="椭圆形" fill="#000000" fill-rule="nonzero"></path>
        <path d="M60,79 C66.0751322,79 71,74.0751322 71,68 C71,61.9248678 66.0751322,57 60,57 C53.9248678,57 49,61.9248678 49,68 C49,74.0751322 53.9248678,79 60,79 Z M60,75 C56.1340068,75 53,71.8659932 53,68 C53,64.1340068 56.1340068,61 60,61 C63.8659932,61 67,64.1340068 67,68 C67,71.8659932 63.8659932,75 60,75 Z" id="椭圆形" fill="#000000" fill-rule="nonzero"></path>
        <circle id="椭圆形" fill="#E9E9E9" cx="60" cy="68" r="3"></circle>
        <path d="M60,95 C74.9116882,95 87,82.9116882 87,68 C87,53.0883118 74.9116882,41 60,41 C45.0883118,41 33,53.0883118 33,68 C33,82.9116882 45.0883118,95 60,95 Z M60,91 C47.2974508,91 37,80.7025492 37,68 C37,55.2974508 47.2974508,45 60,45 C72.7025492,45 83,55.2974508 83,68 C83,80.7025492 72.7025492,91 60,91 Z" id="椭圆形" fill="#000000" fill-rule="nonzero"></path>
        <g id="编组" transform="translate(80.942307, 47.123500) rotate(45.000000) translate(-80.942307, -47.123500) translate(72.442307, 16.123500)">
            <path d="M7,8.35298699 L11,8.35298699 L11,57.0117887 L9.29270729,60.5699589 C9.19713959,60.7691316 8.95820529,60.85312 8.75903258,60.7575523 C8.67307383,60.7163073 8.60467415,60.6457152 8.56616081,60.5584983 L7,57.0117887 L7,8.35298699 Z" id="矩形" fill="#FFC915"></path>
            <polygon id="路径-3" fill="#FFFFFF" points="4.65829704 7.53458702 7.46760928 10.3438993 7.30787139 26.582971 3.95117388 24.1253487"></polygon>
            <polygon id="路径-2" fill="#FFE17E" points="10.5 23.6715729 14.1462051 21.194068 13.765014 4.48308141 10.5764734 7.671622"></polygon>
            <g id="编组-2" transform="translate(-0.000000, 0.000000)" fill="#FFC915" fill-rule="nonzero">
                <path d="M4.68443129,21.8312776 L4.68443129,8.13031625 L7.19084566,10.1201519 L9.73971142,7.37471771 L0.771486724,0.254868057 L0.771486724,23.116825 C0.771486724,23.444624 0.932141359,23.7516096 1.20147238,23.9384597 L7.42326497,28.2548681 L9.77148672,25.3604548 L4.68443129,21.8312776 Z" id="路径-4"></path>
                <path d="M11.7554991,21.8312776 L11.7554991,8.13031625 L14.2619135,10.1201519 L16.8107792,7.37471771 L7.84255454,0.254868057 L7.84255454,23.116825 C7.84255454,23.444624 8.00320917,23.7516096 8.27254019,23.9384597 L14.4943328,28.2548681 L16.8425545,25.3604548 L11.7554991,21.8312776 Z" id="路径-4" transform="translate(12.342555, 14.254868) scale(-1, 1) translate(-12.342555, -14.254868) "></path>
            </g>
        </g>
        <circle id="椭圆形" fill="#FFC915" cx="60.5" cy="8.5" r="2.5"></circle>
    </g>
</svg>